<svg width="16" height="16" viewBox="0 0 16 16" fill="none" xmlns="http://www.w3.org/2000/svg">
<path d="M3.33333 5.33332V9.33332C3.33333 11.2189 3.33333 12.1618 3.91912 12.7475C4.50491 13.3333 5.44772 13.3333 7.33333 13.3333H8.66667C10.5523 13.3333 11.4951 13.3333 12.0809 12.7475C12.6667 12.1618 12.6667 11.2189 12.6667 9.33332V5.33332M3.33333 5.33332H12.6667M3.33333 5.33332H2.24242C2.20301 5.33332 2.1833 5.33332 2.16683 5.33055C2.08277 5.31642 2.01691 5.25055 2.00277 5.16649C2 5.15002 2 5.13031 2 5.0909V5.0909C2 4.69675 2 4.49967 2.02769 4.335C2.16905 3.49436 2.8277 2.83571 3.66834 2.69435C3.83301 2.66666 4.03009 2.66666 4.42424 2.66666H11.5758C11.9699 2.66666 12.167 2.66666 12.3317 2.69435C13.1723 2.83571 13.8309 3.49436 13.9723 4.335C14 4.49967 14 4.69675 14 5.0909V5.0909C14 5.13031 14 5.15002 13.9972 5.16649C13.9831 5.25055 13.9172 5.31642 13.8332 5.33055C13.8167 5.33332 13.797 5.33332 13.7576 5.33332H12.6667" stroke="#324558"/>
<path d="M6.66666 10.6667H9.33332" stroke="#324558" stroke-linecap="round"/>
</svg>
