<svg width="36" height="36" viewBox="0 0 36 36" fill="none" xmlns="http://www.w3.org/2000/svg">
<path d="M33.75 16.875H19.125C18.45 16.875 18 16.425 18 15.75V3.7125C18 3.15 18.45 2.7 18.9 2.5875L33.525 0C33.8625 0 34.2 0 34.425 0.225C34.7625 0.45 34.875 0.7875 34.875 1.125V15.75C34.875 16.425 34.425 16.875 33.75 16.875Z" fill="#00ADEF"/>
<path d="M14.625 16.875H1.125C0.45 16.875 0 16.425 0 15.75V6.75C0 6.1875 0.45 5.7375 0.9 5.625L14.4 3.375C14.7375 3.375 15.075 3.375 15.3 3.6C15.6375 3.825 15.75 4.1625 15.75 4.5V15.75C15.75 16.425 15.3 16.875 14.625 16.875Z" fill="#00ADEF"/>
<path d="M33.75 36C33.6375 36 33.6375 36 33.525 36L18.9 33.4125C18.3375 33.3 18 32.85 18 32.2875V20.25C18 19.575 18.45 19.125 19.125 19.125H33.75C34.425 19.125 34.875 19.575 34.875 20.25V34.875C34.875 35.2125 34.7625 35.55 34.425 35.775C34.3125 35.8875 33.975 36 33.75 36Z" fill="#00ADEF"/>
<path d="M14.625 32.625C14.5125 32.625 14.5125 32.625 14.4 32.625L0.9 30.375C0.45 30.2625 0 29.8125 0 29.25V20.25C0 19.575 0.45 19.125 1.125 19.125H14.625C15.3 19.125 15.75 19.575 15.75 20.25V31.5C15.75 31.8375 15.6375 32.175 15.3 32.4C15.1875 32.5125 14.85 32.625 14.625 32.625Z" fill="#00ADEF"/>
</svg>
