<svg width="18" height="12" viewBox="0 0 18 12" fill="none" xmlns="http://www.w3.org/2000/svg">
<path fill-rule="evenodd" clip-rule="evenodd" d="M0.509766 0.959473C2.63768 3.20697 5.76522 3.56614 9.00269 3.56614C12.2402 3.56614 15.2791 3.27447 17.4905 0.959473C17.4905 4.26697 12.9125 5.73197 9.00099 5.73197C5.08858 5.73197 0.509766 4.13197 0.509766 0.959473Z" fill="#242E42"/>
<path fill-rule="evenodd" clip-rule="evenodd" d="M10.1317 8.11693L8.99573 11.0403L7.85891 8.11443C8.23984 8.1436 8.61992 8.15777 8.99403 8.15777C9.36899 8.15777 9.74907 8.14443 10.1317 8.11693ZM13.7373 7.40777L13.5771 10.6036L11.4142 7.9736C12.2048 7.85555 12.9825 7.66613 13.7373 7.40777ZM16.4976 5.76527L17.4503 8.6011L14.679 7.02443C15.3965 6.68527 16.0212 6.2661 16.4976 5.76527ZM6.59256 7.9636L4.42203 10.6036L4.26011 7.37193C5.01729 7.63993 5.79762 7.83801 6.59256 7.9636ZM3.36276 7.00027L0.548828 8.60027L1.51351 5.73193C1.99926 6.23193 2.63414 6.65527 3.36276 7.0011V7.00027Z" fill="black"/>
</svg>
