<svg width="12" height="13" viewBox="0 0 12 13" fill="none" xmlns="http://www.w3.org/2000/svg">
<path fill-rule="evenodd" clip-rule="evenodd" d="M8.24934 1.42931L7.68647 2.83334C6.81017 2.48364 5.84581 2.41765 4.92984 2.6447C4.01388 2.87174 3.19266 3.38034 2.58239 4.09852C1.97211 4.81671 1.60368 5.70813 1.5292 6.64667C1.45472 7.5852 1.67797 8.52334 2.16737 9.32836C2.65676 10.1334 3.38753 10.7645 4.25628 11.1325C5.12503 11.5005 6.08778 11.5866 7.00833 11.3788C7.92888 11.171 8.76061 10.6797 9.38587 9.97447C10.0111 9.26923 10.3982 8.38572 10.4925 7.44895L12 7.59857C11.8741 8.85079 11.3567 10.0318 10.521 10.9746C9.68524 11.9173 8.57346 12.5741 7.34296 12.8519C6.11245 13.1298 4.82552 13.0146 3.66422 12.5228C2.50293 12.031 1.52607 11.1873 0.871862 10.1112C0.217652 9.03517 -0.0807904 7.78114 0.0187584 6.52657C0.118307 5.27201 0.610807 4.08043 1.42658 3.12041C2.24235 2.1604 3.34009 1.48056 4.5645 1.17707C5.7889 0.87359 7.07797 0.961829 8.24934 1.42931Z" fill="#ABB4BE"/>
<path fill-rule="evenodd" clip-rule="evenodd" d="M8.72758 0L10 3.50964L7 5L8.72758 0Z" fill="#404E68"/>
</svg>
