<svg width="16" height="12" viewBox="0 0 16 12" fill="none" xmlns="http://www.w3.org/2000/svg">
<path fill-rule="evenodd" clip-rule="evenodd" d="M0 6C2.1336 1.99971 4.8 0 8 0C11.2 0 13.8664 1.99971 16 6C13.8664 10.0003 11.2 12 8 12C4.8 12 2.1336 10.0003 0 6ZM8 9.85714C8.95478 9.85714 9.87045 9.45077 10.5456 8.72741C11.2207 8.00406 11.6 7.02298 11.6 6C11.6 4.97702 11.2207 3.99594 10.5456 3.27259C9.87045 2.54923 8.95478 2.14286 8 2.14286C7.04522 2.14286 6.12955 2.54923 5.45442 3.27259C4.77928 3.99594 4.4 4.97702 4.4 6C4.4 7.02298 4.77928 8.00406 5.45442 8.72741C6.12955 9.45077 7.04522 9.85714 8 9.85714Z" fill="#CCD3DB"/>
<path d="M8 10C10.2091 10 12 8.20914 12 6C12 3.79086 10.2091 2 8 2C5.79086 2 4 3.79086 4 6C4 8.20914 5.79086 10 8 10Z" fill="#242E42"/>
</svg>
