<svg width="20" height="30" viewBox="0 0 20 30" fill="none" xmlns="http://www.w3.org/2000/svg">
<path fill-rule="evenodd" clip-rule="evenodd" d="M13.5714 9.75H20V27C20 27.7956 19.699 28.5587 19.1632 29.1213C18.6273 29.6839 17.9006 30 17.1429 30H2.85714C2.09938 30 1.37266 29.6839 0.836838 29.1213C0.301019 28.5587 0 27.7956 0 27V3C0 2.20435 0.301019 1.44129 0.836838 0.87868C1.37266 0.31607 2.09938 0 2.85714 0H10.7143V6.75C10.7143 7.54565 11.0153 8.30871 11.5511 8.87132C12.0869 9.43393 12.8137 9.75 13.5714 9.75ZM4.28571 15C3.90683 15 3.54347 15.158 3.27556 15.4393C3.00765 15.7206 2.85714 16.1022 2.85714 16.5C2.85714 16.8978 3.00765 17.2794 3.27556 17.5607C3.54347 17.842 3.90683 18 4.28571 18H15.7143C16.0932 18 16.4565 17.842 16.7244 17.5607C16.9923 17.2794 17.1429 16.8978 17.1429 16.5C17.1429 16.1022 16.9923 15.7206 16.7244 15.4393C16.4565 15.158 16.0932 15 15.7143 15H4.28571ZM4.28571 21C3.90683 21 3.54347 21.158 3.27556 21.4393C3.00765 21.7206 2.85714 22.1022 2.85714 22.5C2.85714 22.8978 3.00765 23.2794 3.27556 23.5607C3.54347 23.842 3.90683 24 4.28571 24H11.4286C11.8075 24 12.1708 23.842 12.4387 23.5607C12.7066 23.2794 12.8571 22.8978 12.8571 22.5C12.8571 22.1022 12.7066 21.7206 12.4387 21.4393C12.1708 21.158 11.8075 21 11.4286 21H4.28571Z" fill="#ABB4BE"/>
<path fill-rule="evenodd" clip-rule="evenodd" d="M10.7144 0L20.0001 9.75H13.5715C12.8137 9.75 12.087 9.43393 11.5512 8.87132C11.0154 8.30871 10.7144 7.54565 10.7144 6.75V0Z" fill="#C1C9D1"/>
</svg>
