<svg width="16" height="16" viewBox="0 0 16 16" fill="none" xmlns="http://www.w3.org/2000/svg">
<path fill-rule="evenodd" clip-rule="evenodd" d="M7.2 5.728V0C3.2 0.4 0 3.832 0 8C0 12.168 3.2 15.6 7.2 16V10.272C6.4 9.944 5.6 9.056 5.6 8C5.6 6.944 6.4 6.056 7.2 5.728Z" fill="white" fill-opacity="0.4"/>
<path fill-rule="evenodd" clip-rule="evenodd" d="M10.2878 7.2H15.9998C15.6158 3.4 12.7998 0.376 8.7998 0V5.728C9.5998 5.968 10.0158 6.512 10.2878 7.2ZM8.7998 10.272V16C12.7998 15.624 15.6158 12.6 15.9998 8.8H10.2878C10.0158 9.488 9.5998 10.032 8.7998 10.272Z" fill="white" fill-opacity="0.4"/>
</svg>
