<svg width="16" height="16" viewBox="0 0 16 16" fill="none" xmlns="http://www.w3.org/2000/svg">
<path fill-rule="evenodd" clip-rule="evenodd" d="M8 16C6.94943 16 5.90914 15.7931 4.93853 15.391C3.96793 14.989 3.08601 14.3997 2.34315 13.6569C1.60028 12.914 1.011 12.0321 0.608964 11.0615C0.206926 10.0909 0 9.05058 0 8C0 6.94943 0.206926 5.90914 0.608964 4.93853C1.011 3.96793 1.60028 3.08601 2.34315 2.34315C3.08601 1.60028 3.96793 1.011 4.93853 0.608964C5.90914 0.206926 6.94943 -1.56548e-08 8 0C10.1217 3.16163e-08 12.1566 0.842855 13.6569 2.34315C15.1571 3.84344 16 5.87827 16 8C16 10.1217 15.1571 12.1566 13.6569 13.6569C12.1566 15.1571 10.1217 16 8 16ZM8 5.04978C8.1558 5.05408 8.31088 5.02711 8.45608 4.97046C8.60128 4.91381 8.73366 4.82863 8.84538 4.71995C8.9571 4.61127 9.0459 4.4813 9.10654 4.33772C9.16717 4.19414 9.19842 4.03986 9.19842 3.884C9.19842 3.72814 9.16717 3.57386 9.10654 3.43028C9.0459 3.2867 8.9571 3.15673 8.84538 3.04805C8.73366 2.93937 8.60128 2.85419 8.45608 2.79754C8.31088 2.74089 8.1558 2.71392 8 2.71822C7.69639 2.72661 7.40803 2.85311 7.19625 3.07082C6.98446 3.28853 6.86597 3.58027 6.86597 3.884C6.86597 4.18773 6.98446 4.47947 7.19625 4.69718C7.40803 4.91489 7.69639 5.04139 8 5.04978ZM7.11111 6.68089V13.3333H8.88889V6.68089H7.11111Z" fill="#B6C2CD"/>
<path d="M8.00021 5.05071C8.64429 5.05071 9.16643 4.52857 9.16643 3.88448C9.16643 3.2404 8.64429 2.71826 8.00021 2.71826C7.35612 2.71826 6.83398 3.2404 6.83398 3.88448C6.83398 4.52857 7.35612 5.05071 8.00021 5.05071Z" fill="#324558"/>
<path fill-rule="evenodd" clip-rule="evenodd" d="M7.11133 6.68115H8.88911V13.3336H7.11133V6.68115Z" fill="#324558"/>
</svg>
