<svg width="16" height="16" viewBox="0 0 16 16" fill="none" xmlns="http://www.w3.org/2000/svg">
<path fill-rule="evenodd" clip-rule="evenodd" d="M0.888889 0H15.1111C15.3469 0 15.573 0.0936505 15.7397 0.260349C15.9064 0.427048 16 0.653141 16 0.888889V7.11111H0V0.888889C0 0.653141 0.0936505 0.427048 0.260349 0.260349C0.427048 0.0936505 0.653141 0 0.888889 0ZM0 8.88889H16V15.1111C16 15.3469 15.9064 15.573 15.7397 15.7397C15.573 15.9064 15.3469 16 15.1111 16H0.888889C0.653141 16 0.427048 15.9064 0.260349 15.7397C0.0936505 15.573 0 15.3469 0 15.1111V8.88889Z" fill="white" fill-opacity="0.4"/>
<path fill-rule="evenodd" clip-rule="evenodd" d="M3.55566 11.5555V13.3333H6.22233V11.5555H3.55566ZM3.55566 2.66666V4.44443H6.22233V2.66666H3.55566Z" fill="#242E42"/>
</svg>
