<svg width="30" height="35" viewBox="0 0 30 35" fill="none" xmlns="http://www.w3.org/2000/svg">
<path fill-rule="evenodd" clip-rule="evenodd" d="M19.9305 4.66667H27.4997C28.4202 4.66667 29.1663 5.41285 29.1663 6.33333V33C29.1663 33.9205 28.4202 34.6667 27.4997 34.6667H2.49967C1.57921 34.6667 0.833008 33.9205 0.833008 33V6.33333C0.833008 5.41285 1.57921 4.66667 2.49967 4.66667H10.0688C10.4655 2.30192 12.5222 0.5 14.9997 0.5C17.4772 0.5 19.5338 2.30192 19.9305 4.66667ZM16.6663 5.5C16.6663 6.42048 15.9202 7.16667 14.9997 7.16667C14.0792 7.16667 13.333 6.42048 13.333 5.5C13.333 4.57952 14.0792 3.83333 14.9997 3.83333C15.9202 3.83333 16.6663 4.57952 16.6663 5.5ZM25.7615 14.1785L21.94 18H17.4997V14.6667H20.5593L23.4045 11.8215L25.7615 14.1785ZM5.83301 14.6667H14.1663V18H5.83301V14.6667ZM5.83301 23H14.1663V26.3333H5.83301V23ZM25.7615 22.5118L21.94 26.3333H17.4997V23H20.5593L23.4045 20.1548L25.7615 22.5118Z" fill="#4A5974"/>
</svg>
