<svg width="16" height="7" viewBox="0 0 16 7" fill="none" xmlns="http://www.w3.org/2000/svg">
<path fill-rule="evenodd" clip-rule="evenodd" d="M9.07175 4.24647L7.99637 7L6.92018 4.24411C7.28079 4.27159 7.6406 4.28493 7.99476 4.28493C8.34972 4.28493 8.70952 4.27237 9.07175 4.24647ZM12.485 3.57849L12.3334 6.5887L10.2859 4.11146C11.0343 4.00026 11.7705 3.82185 12.485 3.57849ZM15.0981 2.0314L16 4.70251L13.3765 3.21743C14.0558 2.89796 14.6471 2.50314 15.0981 2.0314ZM5.72137 4.10204L3.66662 6.5887L3.51334 3.54474C4.23013 3.79717 4.96883 3.98375 5.72137 4.10204ZM2.66384 3.19466L0 4.70173L0.913225 2C1.37306 2.47096 1.97408 2.8697 2.66384 3.19545V3.19466Z" fill="#CCD3DB"/>
<path fill-rule="evenodd" clip-rule="evenodd" d="M0 0C2.00502 1.88371 4.95192 2.18474 8.00241 2.18474C11.0529 2.18474 13.9163 1.94028 16 0C16 2.77213 11.6864 4 8.0008 4C4.31436 4 0 2.65898 0 0Z" fill="#242E42"/>
</svg>
