<svg width="30" height="30" viewBox="0 0 30 30" fill="none" xmlns="http://www.w3.org/2000/svg">
<path fill-rule="evenodd" clip-rule="evenodd" d="M15 30C13.0302 30 11.0796 29.612 9.25975 28.8582C7.43986 28.1044 5.78628 26.9995 4.3934 25.6066C3.00052 24.2137 1.89563 22.5601 1.14181 20.7403C0.387987 18.9204 0 16.9698 0 15C0 13.0302 0.387987 11.0796 1.14181 9.25975C1.89563 7.43986 3.00052 5.78628 4.3934 4.3934C5.78628 3.00052 7.43986 1.89563 9.25975 1.14181C11.0796 0.387986 13.0302 -2.93527e-08 15 0C18.9782 5.92805e-08 22.7936 1.58035 25.6066 4.3934C28.4196 7.20644 30 11.0218 30 15C30 18.9782 28.4196 22.7936 25.6066 25.6066C22.7936 28.4196 18.9782 30 15 30ZM15 9.46833C15.2921 9.4764 15.5829 9.42583 15.8552 9.31961C16.1274 9.21339 16.3756 9.05367 16.5851 8.8499C16.7946 8.64613 16.9611 8.40244 17.0748 8.13322C17.1885 7.86401 17.247 7.57474 17.247 7.2825C17.247 6.99026 17.1885 6.70099 17.0748 6.43178C16.9611 6.16256 16.7946 5.91887 16.5851 5.7151C16.3756 5.51133 16.1274 5.35161 15.8552 5.24539C15.5829 5.13917 15.2921 5.0886 15 5.09667C14.4307 5.11239 13.8901 5.34958 13.493 5.75778C13.0959 6.16599 12.8737 6.71301 12.8737 7.2825C12.8737 7.85199 13.0959 8.39901 13.493 8.80722C13.8901 9.21542 14.4307 9.45261 15 9.46833ZM13.3333 12.5267V25H16.6667V12.5267H13.3333Z" fill="#4A5974"/>
<path d="M15.0001 9.47001C16.2078 9.47001 17.1868 8.49101 17.1868 7.28335C17.1868 6.07568 16.2078 5.09668 15.0001 5.09668C13.7925 5.09668 12.8135 6.07568 12.8135 7.28335C12.8135 8.49101 13.7925 9.47001 15.0001 9.47001Z" fill="#79879C"/>
<path fill-rule="evenodd" clip-rule="evenodd" d="M13.333 12.5267H16.6663V25H13.333V12.5267Z" fill="#79879C"/>
</svg>
