<svg width="1417" height="275" viewBox="0 0 1417 275" fill="none" xmlns="http://www.w3.org/2000/svg">
<rect width="1417" height="275" fill="#F9FBFD"/>
<circle cx="17" cy="19" r="5" fill="#0FCA7A"/>
<path d="M32.424 24H31.26V15.402H32.424V24ZM36.8977 24.096C36.4177 24.096 36.0477 23.962 35.7877 23.694C35.5317 23.426 35.4037 23.04 35.4037 22.536V18.816H34.6717C34.6077 18.816 34.5537 18.798 34.5097 18.762C34.4657 18.722 34.4437 18.662 34.4437 18.582V18.156L35.4397 18.03L35.6857 16.152C35.6937 16.092 35.7197 16.044 35.7637 16.008C35.8077 15.968 35.8637 15.948 35.9317 15.948H36.4717V18.042H38.2117V18.816H36.4717V22.464C36.4717 22.72 36.5337 22.91 36.6577 23.034C36.7817 23.158 36.9417 23.22 37.1377 23.22C37.2497 23.22 37.3457 23.206 37.4257 23.178C37.5097 23.146 37.5817 23.112 37.6417 23.076C37.7017 23.04 37.7517 23.008 37.7917 22.98C37.8357 22.948 37.8737 22.932 37.9057 22.932C37.9617 22.932 38.0117 22.966 38.0557 23.034L38.3677 23.544C38.1837 23.716 37.9617 23.852 37.7017 23.952C37.4417 24.048 37.1737 24.096 36.8977 24.096ZM42.4383 17.826C42.8023 17.826 43.1383 17.888 43.4463 18.012C43.7543 18.132 44.0203 18.308 44.2443 18.54C44.4683 18.768 44.6423 19.052 44.7663 19.392C44.8943 19.728 44.9583 20.112 44.9583 20.544C44.9583 20.712 44.9403 20.824 44.9043 20.88C44.8683 20.936 44.8003 20.964 44.7003 20.964H40.6562C40.6643 21.348 40.7163 21.682 40.8123 21.966C40.9083 22.25 41.0403 22.488 41.2083 22.68C41.3763 22.868 41.5763 23.01 41.8083 23.106C42.0403 23.198 42.3003 23.244 42.5883 23.244C42.8563 23.244 43.0863 23.214 43.2783 23.154C43.4743 23.09 43.6423 23.022 43.7823 22.95C43.9223 22.878 44.0383 22.812 44.1303 22.752C44.2263 22.688 44.3083 22.656 44.3763 22.656C44.4643 22.656 44.5323 22.69 44.5803 22.758L44.8803 23.148C44.7483 23.308 44.5903 23.448 44.4063 23.568C44.2223 23.684 44.0243 23.78 43.8123 23.856C43.6043 23.932 43.3883 23.988 43.1643 24.024C42.9403 24.064 42.7183 24.084 42.4983 24.084C42.0783 24.084 41.6903 24.014 41.3343 23.874C40.9823 23.73 40.6763 23.522 40.4163 23.25C40.1603 22.974 39.9603 22.634 39.8163 22.23C39.6723 21.826 39.6003 21.362 39.6003 20.838C39.6003 20.414 39.6643 20.018 39.7923 19.65C39.9243 19.282 40.1123 18.964 40.3563 18.696C40.6003 18.424 40.8983 18.212 41.2503 18.06C41.6023 17.904 41.9983 17.826 42.4383 17.826ZM42.4622 18.612C41.9463 18.612 41.5403 18.762 41.2443 19.062C40.9483 19.358 40.7643 19.77 40.6923 20.298H43.9983C43.9983 20.05 43.9643 19.824 43.8963 19.62C43.8283 19.412 43.7283 19.234 43.5963 19.086C43.4643 18.934 43.3023 18.818 43.1103 18.738C42.9223 18.654 42.7063 18.612 42.4622 18.612ZM46.8252 24V17.922H47.4612C47.6132 17.922 47.7092 17.996 47.7492 18.144L47.8272 18.768C48.0512 18.492 48.3012 18.266 48.5772 18.09C48.8572 17.914 49.1812 17.826 49.5492 17.826C49.9612 17.826 50.2932 17.94 50.5452 18.168C50.8012 18.396 50.9852 18.704 51.0972 19.092C51.1812 18.872 51.2912 18.682 51.4272 18.522C51.5672 18.362 51.7232 18.23 51.8952 18.126C52.0672 18.022 52.2492 17.946 52.4412 17.898C52.6372 17.85 52.8352 17.826 53.0352 17.826C53.3552 17.826 53.6392 17.878 53.8872 17.982C54.1392 18.082 54.3512 18.23 54.5232 18.426C54.6992 18.622 54.8332 18.864 54.9252 19.152C55.0172 19.436 55.0632 19.762 55.0632 20.13V24H53.9952V20.13C53.9952 19.654 53.8912 19.294 53.6832 19.05C53.4752 18.802 53.1732 18.678 52.7772 18.678C52.6012 18.678 52.4332 18.71 52.2732 18.774C52.1172 18.834 51.9792 18.924 51.8592 19.044C51.7392 19.164 51.6432 19.316 51.5712 19.5C51.5032 19.68 51.4692 19.89 51.4692 20.13V24H50.4012V20.13C50.4012 19.642 50.3032 19.278 50.1072 19.038C49.9112 18.798 49.6252 18.678 49.2492 18.678C48.9852 18.678 48.7392 18.75 48.5112 18.894C48.2872 19.034 48.0812 19.226 47.8932 19.47V24H46.8252Z" fill="#2D2D2D"/>
<path d="M26.8935 47.7393V56.4666H25.8366V48.8472H25.7855L23.6548 50.262V49.1881L25.8366 47.7393H26.8935ZM32.25 56.5859C31.608 56.5859 31.0611 56.4112 30.6094 56.0617C30.1577 55.7095 29.8125 55.1995 29.5739 54.5319C29.3352 53.8614 29.2159 53.0518 29.2159 52.1029C29.2159 51.1597 29.3352 50.3543 29.5739 49.6867C29.8153 49.0163 30.1619 48.5049 30.6136 48.1526C31.0682 47.7975 31.6136 47.62 32.25 47.62C32.8864 47.62 33.4304 47.7975 33.8821 48.1526C34.3366 48.5049 34.6832 49.0163 34.9219 49.6867C35.1634 50.3543 35.2841 51.1597 35.2841 52.1029C35.2841 53.0518 35.1648 53.8614 34.9261 54.5319C34.6875 55.1995 34.3423 55.7095 33.8906 56.0617C33.4389 56.4112 32.892 56.5859 32.25 56.5859ZM32.25 55.6484C32.8864 55.6484 33.3807 55.3416 33.733 54.7279C34.0852 54.1143 34.2614 53.2393 34.2614 52.1029C34.2614 51.3472 34.1804 50.7038 34.0185 50.1725C33.8594 49.6413 33.6293 49.2364 33.3281 48.958C33.0298 48.6796 32.6705 48.5404 32.25 48.5404C31.6193 48.5404 31.1264 48.8515 30.7713 49.4737C30.4162 50.093 30.2386 50.9694 30.2386 52.1029C30.2386 52.8586 30.3182 53.5006 30.4773 54.0291C30.6364 54.5575 30.8651 54.9595 31.1634 55.235C31.4645 55.5106 31.8267 55.6484 32.25 55.6484ZM39.75 56.5859C39.108 56.5859 38.5611 56.4112 38.1094 56.0617C37.6577 55.7095 37.3125 55.1995 37.0739 54.5319C36.8352 53.8614 36.7159 53.0518 36.7159 52.1029C36.7159 51.1597 36.8352 50.3543 37.0739 49.6867C37.3153 49.0163 37.6619 48.5049 38.1136 48.1526C38.5682 47.7975 39.1136 47.62 39.75 47.62C40.3864 47.62 40.9304 47.7975 41.3821 48.1526C41.8366 48.5049 42.1832 49.0163 42.4219 49.6867C42.6634 50.3543 42.7841 51.1597 42.7841 52.1029C42.7841 53.0518 42.6648 53.8614 42.4261 54.5319C42.1875 55.1995 41.8423 55.7095 41.3906 56.0617C40.9389 56.4112 40.392 56.5859 39.75 56.5859ZM39.75 55.6484C40.3864 55.6484 40.8807 55.3416 41.233 54.7279C41.5852 54.1143 41.7614 53.2393 41.7614 52.1029C41.7614 51.3472 41.6804 50.7038 41.5185 50.1725C41.3594 49.6413 41.1293 49.2364 40.8281 48.958C40.5298 48.6796 40.1705 48.5404 39.75 48.5404C39.1193 48.5404 38.6264 48.8515 38.2713 49.4737C37.9162 50.093 37.7386 50.9694 37.7386 52.1029C37.7386 52.8586 37.8182 53.5006 37.9773 54.0291C38.1364 54.5575 38.3651 54.9595 38.6634 55.235C38.9645 55.5106 39.3267 55.6484 39.75 55.6484ZM47.25 56.5859C46.608 56.5859 46.0611 56.4112 45.6094 56.0617C45.1577 55.7095 44.8125 55.1995 44.5739 54.5319C44.3352 53.8614 44.2159 53.0518 44.2159 52.1029C44.2159 51.1597 44.3352 50.3543 44.5739 49.6867C44.8153 49.0163 45.1619 48.5049 45.6136 48.1526C46.0682 47.7975 46.6136 47.62 47.25 47.62C47.8864 47.62 48.4304 47.7975 48.8821 48.1526C49.3366 48.5049 49.6832 49.0163 49.9219 49.6867C50.1634 50.3543 50.2841 51.1597 50.2841 52.1029C50.2841 53.0518 50.1648 53.8614 49.9261 54.5319C49.6875 55.1995 49.3423 55.7095 48.8906 56.0617C48.4389 56.4112 47.892 56.5859 47.25 56.5859ZM47.25 55.6484C47.8864 55.6484 48.3807 55.3416 48.733 54.7279C49.0852 54.1143 49.2614 53.2393 49.2614 52.1029C49.2614 51.3472 49.1804 50.7038 49.0185 50.1725C48.8594 49.6413 48.6293 49.2364 48.3281 48.958C48.0298 48.6796 47.6705 48.5404 47.25 48.5404C46.6193 48.5404 46.1264 48.8515 45.7713 49.4737C45.4162 50.093 45.2386 50.9694 45.2386 52.1029C45.2386 52.8586 45.3182 53.5006 45.4773 54.0291C45.6364 54.5575 45.8651 54.9595 46.1634 55.235C46.4645 55.5106 46.8267 55.6484 47.25 55.6484Z" fill="#72777B"/>
<path d="M30.6371 88.3999L34.5405 80.6783V80.6101H30.0405V79.6726H35.6314V80.6613L31.745 88.3999H30.6371ZM39.8299 88.5192C39.3299 88.5192 38.8796 88.4198 38.479 88.2209C38.0785 88.0221 37.7575 87.7493 37.516 87.4027C37.2745 87.0562 37.1424 86.6613 37.1197 86.2181H38.1424C38.1822 86.613 38.3612 86.9397 38.6793 87.1982C39.0004 87.4539 39.3839 87.5817 39.8299 87.5817C40.1879 87.5817 40.506 87.4979 40.7844 87.3303C41.0657 87.1627 41.2859 86.9326 41.445 86.64C41.6069 86.3445 41.6879 86.0107 41.6879 85.6385C41.6879 85.2579 41.604 84.9184 41.4364 84.6201C41.2717 84.3189 41.0444 84.0817 40.7546 83.9084C40.4648 83.7351 40.1339 83.6471 39.7617 83.6442C39.4947 83.6414 39.2205 83.6826 38.9393 83.7678C38.658 83.8502 38.4265 83.9567 38.2447 84.0874L37.256 83.9681L37.7844 79.6726H42.3185V80.6101H38.6708L38.364 83.184H38.4151C38.5941 83.0419 38.8185 82.924 39.0884 82.8303C39.3583 82.7365 39.6396 82.6897 39.9322 82.6897C40.4663 82.6897 40.9421 82.8175 41.3597 83.0732C41.7802 83.326 42.1097 83.6726 42.3484 84.113C42.5898 84.5533 42.7106 85.0562 42.7106 85.6215C42.7106 86.1783 42.5856 86.6755 42.3356 87.113C42.0884 87.5476 41.7475 87.8914 41.3129 88.1442C40.8782 88.3942 40.3839 88.5192 39.8299 88.5192ZM47.25 88.5192C46.608 88.5192 46.0611 88.3445 45.6094 87.9951C45.1577 87.6428 44.8125 87.1329 44.5739 86.4652C44.3352 85.7948 44.2159 84.9851 44.2159 84.0363C44.2159 83.0931 44.3352 82.2877 44.5739 81.6201C44.8153 80.9496 45.1619 80.4383 45.6136 80.086C46.0682 79.7309 46.6136 79.5533 47.25 79.5533C47.8864 79.5533 48.4304 79.7309 48.8821 80.086C49.3366 80.4383 49.6832 80.9496 49.9219 81.6201C50.1634 82.2877 50.2841 83.0931 50.2841 84.0363C50.2841 84.9851 50.1648 85.7948 49.9261 86.4652C49.6875 87.1329 49.3423 87.6428 48.8906 87.9951C48.4389 88.3445 47.892 88.5192 47.25 88.5192ZM47.25 87.5817C47.8864 87.5817 48.3807 87.2749 48.733 86.6613C49.0852 86.0476 49.2614 85.1726 49.2614 84.0363C49.2614 83.2806 49.1804 82.6371 49.0185 82.1059C48.8594 81.5746 48.6293 81.1698 48.3281 80.8914C48.0298 80.613 47.6705 80.4738 47.25 80.4738C46.6193 80.4738 46.1264 80.7848 45.7713 81.407C45.4162 82.0263 45.2386 82.9027 45.2386 84.0363C45.2386 84.7919 45.3182 85.434 45.4773 85.9624C45.6364 86.4908 45.8651 86.8928 46.1634 87.1684C46.4645 87.4439 46.8267 87.5817 47.25 87.5817Z" fill="#72777B"/>
<path d="M59 83.8999H1405" stroke="#E7EAEE"/>
<path d="M32.3299 120.453C31.8299 120.453 31.3796 120.353 30.979 120.154C30.5785 119.955 30.2575 119.683 30.016 119.336C29.7745 118.99 29.6424 118.595 29.6197 118.151H30.6424C30.6822 118.546 30.8612 118.873 31.1793 119.132C31.5004 119.387 31.8839 119.515 32.3299 119.515C32.6879 119.515 33.006 119.431 33.2844 119.264C33.5657 119.096 33.7859 118.866 33.945 118.573C34.1069 118.278 34.1879 117.944 34.1879 117.572C34.1879 117.191 34.104 116.852 33.9364 116.553C33.7717 116.252 33.5444 116.015 33.2546 115.842C32.9648 115.668 32.6339 115.58 32.2617 115.578C31.9947 115.575 31.7205 115.616 31.4393 115.701C31.158 115.784 30.9265 115.89 30.7447 116.021L29.756 115.901L30.2844 111.606H34.8185V112.543H31.1708L30.864 115.117H30.9151C31.0941 114.975 31.3185 114.857 31.5884 114.764C31.8583 114.67 32.1396 114.623 32.4322 114.623C32.9663 114.623 33.4421 114.751 33.8597 115.007C34.2802 115.259 34.6097 115.606 34.8484 116.046C35.0898 116.487 35.2106 116.99 35.2106 117.555C35.2106 118.112 35.0856 118.609 34.8356 119.046C34.5884 119.481 34.2475 119.825 33.8129 120.078C33.3782 120.328 32.8839 120.453 32.3299 120.453ZM39.75 120.453C39.108 120.453 38.5611 120.278 38.1094 119.928C37.6577 119.576 37.3125 119.066 37.0739 118.399C36.8352 117.728 36.7159 116.918 36.7159 115.97C36.7159 115.026 36.8352 114.221 37.0739 113.553C37.3153 112.883 37.6619 112.372 38.1136 112.019C38.5682 111.664 39.1136 111.487 39.75 111.487C40.3864 111.487 40.9304 111.664 41.3821 112.019C41.8366 112.372 42.1832 112.883 42.4219 113.553C42.6634 114.221 42.7841 115.026 42.7841 115.97C42.7841 116.918 42.6648 117.728 42.4261 118.399C42.1875 119.066 41.8423 119.576 41.3906 119.928C40.9389 120.278 40.392 120.453 39.75 120.453ZM39.75 119.515C40.3864 119.515 40.8807 119.208 41.233 118.595C41.5852 117.981 41.7614 117.106 41.7614 115.97C41.7614 115.214 41.6804 114.57 41.5185 114.039C41.3594 113.508 41.1293 113.103 40.8281 112.825C40.5298 112.546 40.1705 112.407 39.75 112.407C39.1193 112.407 38.6264 112.718 38.2713 113.34C37.9162 113.96 37.7386 114.836 37.7386 115.97C37.7386 116.725 37.8182 117.367 37.9773 117.896C38.1364 118.424 38.3651 118.826 38.6634 119.102C38.9645 119.377 39.3267 119.515 39.75 119.515ZM47.25 120.453C46.608 120.453 46.0611 120.278 45.6094 119.928C45.1577 119.576 44.8125 119.066 44.5739 118.399C44.3352 117.728 44.2159 116.918 44.2159 115.97C44.2159 115.026 44.3352 114.221 44.5739 113.553C44.8153 112.883 45.1619 112.372 45.6136 112.019C46.0682 111.664 46.6136 111.487 47.25 111.487C47.8864 111.487 48.4304 111.664 48.8821 112.019C49.3366 112.372 49.6832 112.883 49.9219 113.553C50.1634 114.221 50.2841 115.026 50.2841 115.97C50.2841 116.918 50.1648 117.728 49.9261 118.399C49.6875 119.066 49.3423 119.576 48.8906 119.928C48.4389 120.278 47.892 120.453 47.25 120.453ZM47.25 119.515C47.8864 119.515 48.3807 119.208 48.733 118.595C49.0852 117.981 49.2614 117.106 49.2614 115.97C49.2614 115.214 49.1804 114.57 49.0185 114.039C48.8594 113.508 48.6293 113.103 48.3281 112.825C48.0298 112.546 47.6705 112.407 47.25 112.407C46.6193 112.407 46.1264 112.718 45.7713 113.34C45.4162 113.96 45.2386 114.836 45.2386 115.97C45.2386 116.725 45.3182 117.367 45.4773 117.896C45.6364 118.424 45.8651 118.826 46.1634 119.102C46.4645 119.377 46.8267 119.515 47.25 119.515Z" fill="#72777B"/>
<path d="M59 115.833H1405" stroke="#E7EAEE"/>
<path d="M32.3299 152.386C31.8299 152.386 31.3796 152.286 30.979 152.088C30.5785 151.889 30.2575 151.616 30.016 151.269C29.7745 150.923 29.6424 150.528 29.6197 150.085H30.6424C30.6822 150.48 30.8612 150.806 31.1793 151.065C31.5004 151.321 31.8839 151.448 32.3299 151.448C32.6879 151.448 33.006 151.365 33.2844 151.197C33.5657 151.029 33.7859 150.799 33.945 150.507C34.1069 150.211 34.1879 149.877 34.1879 149.505C34.1879 149.125 34.104 148.785 33.9364 148.487C33.7717 148.186 33.5444 147.948 33.2546 147.775C32.9648 147.602 32.6339 147.514 32.2617 147.511C31.9947 147.508 31.7205 147.549 31.4393 147.634C31.158 147.717 30.9265 147.823 30.7447 147.954L29.756 147.835L30.2844 143.539H34.8185V144.477H31.1708L30.864 147.051H30.9151C31.0941 146.909 31.3185 146.791 31.5884 146.697C31.8583 146.603 32.1396 146.556 32.4322 146.556C32.9663 146.556 33.4421 146.684 33.8597 146.94C34.2802 147.193 34.6097 147.539 34.8484 147.98C35.0898 148.42 35.2106 148.923 35.2106 149.488C35.2106 150.045 35.0856 150.542 34.8356 150.98C34.5884 151.414 34.2475 151.758 33.8129 152.011C33.3782 152.261 32.8839 152.386 32.3299 152.386ZM39.75 152.386C39.108 152.386 38.5611 152.211 38.1094 151.862C37.6577 151.509 37.3125 151 37.0739 150.332C36.8352 149.661 36.7159 148.852 36.7159 147.903C36.7159 146.96 36.8352 146.154 37.0739 145.487C37.3153 144.816 37.6619 144.305 38.1136 143.953C38.5682 143.598 39.1136 143.42 39.75 143.42C40.3864 143.42 40.9304 143.598 41.3821 143.953C41.8366 144.305 42.1832 144.816 42.4219 145.487C42.6634 146.154 42.7841 146.96 42.7841 147.903C42.7841 148.852 42.6648 149.661 42.4261 150.332C42.1875 151 41.8423 151.509 41.3906 151.862C40.9389 152.211 40.392 152.386 39.75 152.386ZM39.75 151.448C40.3864 151.448 40.8807 151.142 41.233 150.528C41.5852 149.914 41.7614 149.039 41.7614 147.903C41.7614 147.147 41.6804 146.504 41.5185 145.973C41.3594 145.441 41.1293 145.036 40.8281 144.758C40.5298 144.48 40.1705 144.34 39.75 144.34C39.1193 144.34 38.6264 144.652 38.2713 145.274C37.9162 145.893 37.7386 146.769 37.7386 147.903C37.7386 148.659 37.8182 149.301 37.9773 149.829C38.1364 150.358 38.3651 150.759 38.6634 151.035C38.9645 151.311 39.3267 151.448 39.75 151.448ZM47.25 152.386C46.608 152.386 46.0611 152.211 45.6094 151.862C45.1577 151.509 44.8125 151 44.5739 150.332C44.3352 149.661 44.2159 148.852 44.2159 147.903C44.2159 146.96 44.3352 146.154 44.5739 145.487C44.8153 144.816 45.1619 144.305 45.6136 143.953C46.0682 143.598 46.6136 143.42 47.25 143.42C47.8864 143.42 48.4304 143.598 48.8821 143.953C49.3366 144.305 49.6832 144.816 49.9219 145.487C50.1634 146.154 50.2841 146.96 50.2841 147.903C50.2841 148.852 50.1648 149.661 49.9261 150.332C49.6875 151 49.3423 151.509 48.8906 151.862C48.4389 152.211 47.892 152.386 47.25 152.386ZM47.25 151.448C47.8864 151.448 48.3807 151.142 48.733 150.528C49.0852 149.914 49.2614 149.039 49.2614 147.903C49.2614 147.147 49.1804 146.504 49.0185 145.973C48.8594 145.441 48.6293 145.036 48.3281 144.758C48.0298 144.48 47.6705 144.34 47.25 144.34C46.6193 144.34 46.1264 144.652 45.7713 145.274C45.4162 145.893 45.2386 146.769 45.2386 147.903C45.2386 148.659 45.3182 149.301 45.4773 149.829C45.6364 150.358 45.8651 150.759 46.1634 151.035C46.4645 151.311 46.8267 151.448 47.25 151.448Z" fill="#72777B"/>
<path d="M59 147.767H1405" stroke="#E7EAEE"/>
<path d="M32.3299 184.319C31.8299 184.319 31.3796 184.22 30.979 184.021C30.5785 183.822 30.2575 183.549 30.016 183.203C29.7745 182.856 29.6424 182.461 29.6197 182.018H30.6424C30.6822 182.413 30.8612 182.74 31.1793 182.998C31.5004 183.254 31.8839 183.382 32.3299 183.382C32.6879 183.382 33.006 183.298 33.2844 183.13C33.5657 182.963 33.7859 182.733 33.945 182.44C34.1069 182.145 34.1879 181.811 34.1879 181.439C34.1879 181.058 34.104 180.718 33.9364 180.42C33.7717 180.119 33.5444 179.882 33.2546 179.708C32.9648 179.535 32.6339 179.447 32.2617 179.444C31.9947 179.441 31.7205 179.483 31.4393 179.568C31.158 179.65 30.9265 179.757 30.7447 179.887L29.756 179.768L30.2844 175.473H34.8185V176.41H31.1708L30.864 178.984H30.9151C31.0941 178.842 31.3185 178.724 31.5884 178.63C31.8583 178.537 32.1396 178.49 32.4322 178.49C32.9663 178.49 33.4421 178.618 33.8597 178.873C34.2802 179.126 34.6097 179.473 34.8484 179.913C35.0898 180.353 35.2106 180.856 35.2106 181.422C35.2106 181.978 35.0856 182.476 34.8356 182.913C34.5884 183.348 34.2475 183.691 33.8129 183.944C33.3782 184.194 32.8839 184.319 32.3299 184.319ZM39.75 184.319C39.108 184.319 38.5611 184.145 38.1094 183.795C37.6577 183.443 37.3125 182.933 37.0739 182.265C36.8352 181.595 36.7159 180.785 36.7159 179.836C36.7159 178.893 36.8352 178.088 37.0739 177.42C37.3153 176.75 37.6619 176.238 38.1136 175.886C38.5682 175.531 39.1136 175.353 39.75 175.353C40.3864 175.353 40.9304 175.531 41.3821 175.886C41.8366 176.238 42.1832 176.75 42.4219 177.42C42.6634 178.088 42.7841 178.893 42.7841 179.836C42.7841 180.785 42.6648 181.595 42.4261 182.265C42.1875 182.933 41.8423 183.443 41.3906 183.795C40.9389 184.145 40.392 184.319 39.75 184.319ZM39.75 183.382C40.3864 183.382 40.8807 183.075 41.233 182.461C41.5852 181.848 41.7614 180.973 41.7614 179.836C41.7614 179.081 41.6804 178.437 41.5185 177.906C41.3594 177.375 41.1293 176.97 40.8281 176.691C40.5298 176.413 40.1705 176.274 39.75 176.274C39.1193 176.274 38.6264 176.585 38.2713 177.207C37.9162 177.826 37.7386 178.703 37.7386 179.836C37.7386 180.592 37.8182 181.234 37.9773 181.762C38.1364 182.291 38.3651 182.693 38.6634 182.968C38.9645 183.244 39.3267 183.382 39.75 183.382ZM47.25 184.319C46.608 184.319 46.0611 184.145 45.6094 183.795C45.1577 183.443 44.8125 182.933 44.5739 182.265C44.3352 181.595 44.2159 180.785 44.2159 179.836C44.2159 178.893 44.3352 178.088 44.5739 177.42C44.8153 176.75 45.1619 176.238 45.6136 175.886C46.0682 175.531 46.6136 175.353 47.25 175.353C47.8864 175.353 48.4304 175.531 48.8821 175.886C49.3366 176.238 49.6832 176.75 49.9219 177.42C50.1634 178.088 50.2841 178.893 50.2841 179.836C50.2841 180.785 50.1648 181.595 49.9261 182.265C49.6875 182.933 49.3423 183.443 48.8906 183.795C48.4389 184.145 47.892 184.319 47.25 184.319ZM47.25 183.382C47.8864 183.382 48.3807 183.075 48.733 182.461C49.0852 181.848 49.2614 180.973 49.2614 179.836C49.2614 179.081 49.1804 178.437 49.0185 177.906C48.8594 177.375 48.6293 176.97 48.3281 176.691C48.0298 176.413 47.6705 176.274 47.25 176.274C46.6193 176.274 46.1264 176.585 45.7713 177.207C45.4162 177.826 45.2386 178.703 45.2386 179.836C45.2386 180.592 45.3182 181.234 45.4773 181.762C45.6364 182.291 45.8651 182.693 46.1634 182.968C46.4645 183.244 46.8267 183.382 47.25 183.382Z" fill="#72777B"/>
<path d="M59 179.7H1405" stroke="#E7EAEE"/>
<path d="M29.837 216.133V215.366L32.7177 212.213C33.0558 211.844 33.3342 211.523 33.5529 211.25C33.7717 210.974 33.9336 210.716 34.0387 210.474C34.1467 210.23 34.2006 209.974 34.2006 209.707C34.2006 209.4 34.1268 209.135 33.979 208.91C33.8342 208.686 33.6353 208.513 33.3825 208.39C33.1296 208.268 32.8455 208.207 32.5302 208.207C32.195 208.207 31.9023 208.277 31.6523 208.416C31.4052 208.552 31.2134 208.744 31.0771 208.991C30.9435 209.238 30.8768 209.528 30.8768 209.861H29.8711C29.8711 209.349 29.989 208.9 30.2248 208.514C30.4606 208.128 30.7816 207.826 31.1879 207.611C31.5969 207.395 32.0558 207.287 32.5643 207.287C33.0756 207.287 33.5288 207.395 33.9237 207.611C34.3185 207.826 34.6282 208.118 34.8526 208.484C35.0771 208.851 35.1893 209.258 35.1893 209.707C35.1893 210.028 35.131 210.342 35.0146 210.649C34.9009 210.953 34.7021 211.292 34.418 211.667C34.1367 212.04 33.7461 212.494 33.2461 213.031L31.2859 215.128V215.196H35.3427V216.133H29.837ZM39.8299 216.253C39.3299 216.253 38.8796 216.153 38.479 215.954C38.0785 215.755 37.7575 215.483 37.516 215.136C37.2745 214.79 37.1424 214.395 37.1197 213.951H38.1424C38.1822 214.346 38.3612 214.673 38.6793 214.932C39.0004 215.187 39.3839 215.315 39.8299 215.315C40.1879 215.315 40.506 215.231 40.7844 215.064C41.0657 214.896 41.2859 214.666 41.445 214.373C41.6069 214.078 41.6879 213.744 41.6879 213.372C41.6879 212.991 41.604 212.652 41.4364 212.353C41.2717 212.052 41.0444 211.815 40.7546 211.642C40.4648 211.469 40.1339 211.38 39.7617 211.378C39.4947 211.375 39.2205 211.416 38.9393 211.501C38.658 211.584 38.4265 211.69 38.2447 211.821L37.256 211.701L37.7844 207.406H42.3185V208.344H38.6708L38.364 210.917H38.4151C38.5941 210.775 38.8185 210.657 39.0884 210.564C39.3583 210.47 39.6396 210.423 39.9322 210.423C40.4663 210.423 40.9421 210.551 41.3597 210.807C41.7802 211.059 42.1097 211.406 42.3484 211.846C42.5898 212.287 42.7106 212.79 42.7106 213.355C42.7106 213.912 42.5856 214.409 42.3356 214.846C42.0884 215.281 41.7475 215.625 41.3129 215.878C40.8782 216.128 40.3839 216.253 39.8299 216.253ZM47.25 216.253C46.608 216.253 46.0611 216.078 45.6094 215.728C45.1577 215.376 44.8125 214.866 44.5739 214.199C44.3352 213.528 44.2159 212.719 44.2159 211.77C44.2159 210.826 44.3352 210.021 44.5739 209.353C44.8153 208.683 45.1619 208.172 45.6136 207.819C46.0682 207.464 46.6136 207.287 47.25 207.287C47.8864 207.287 48.4304 207.464 48.8821 207.819C49.3366 208.172 49.6832 208.683 49.9219 209.353C50.1634 210.021 50.2841 210.826 50.2841 211.77C50.2841 212.719 50.1648 213.528 49.9261 214.199C49.6875 214.866 49.3423 215.376 48.8906 215.728C48.4389 216.078 47.892 216.253 47.25 216.253ZM47.25 215.315C47.8864 215.315 48.3807 215.008 48.733 214.395C49.0852 213.781 49.2614 212.906 49.2614 211.77C49.2614 211.014 49.1804 210.371 49.0185 209.839C48.8594 209.308 48.6293 208.903 48.3281 208.625C48.0298 208.346 47.6705 208.207 47.25 208.207C46.6193 208.207 46.1264 208.518 45.7713 209.14C45.4162 209.76 45.2386 210.636 45.2386 211.77C45.2386 212.525 45.3182 213.167 45.4773 213.696C45.6364 214.224 45.8651 214.626 46.1634 214.902C46.4645 215.177 46.8267 215.315 47.25 215.315Z" fill="#72777B"/>
<path d="M59 211.633H1405" stroke="#E7EAEE"/>
<path d="M47.25 249.919C46.608 249.919 46.0611 249.745 45.6094 249.395C45.1577 249.043 44.8125 248.533 44.5739 247.865C44.3352 247.195 44.2159 246.385 44.2159 245.436C44.2159 244.493 44.3352 243.688 44.5739 243.02C44.8153 242.35 45.1619 241.838 45.6136 241.486C46.0682 241.131 46.6136 240.953 47.25 240.953C47.8864 240.953 48.4304 241.131 48.8821 241.486C49.3366 241.838 49.6832 242.35 49.9219 243.02C50.1634 243.688 50.2841 244.493 50.2841 245.436C50.2841 246.385 50.1648 247.195 49.9261 247.865C49.6875 248.533 49.3423 249.043 48.8906 249.395C48.4389 249.745 47.892 249.919 47.25 249.919ZM47.25 248.982C47.8864 248.982 48.3807 248.675 48.733 248.061C49.0852 247.448 49.2614 246.573 49.2614 245.436C49.2614 244.681 49.1804 244.037 49.0185 243.506C48.8594 242.975 48.6293 242.57 48.3281 242.292C48.0298 242.013 47.6705 241.874 47.25 241.874C46.6193 241.874 46.1264 242.185 45.7713 242.807C45.4162 243.426 45.2386 244.303 45.2386 245.436C45.2386 246.192 45.3182 246.834 45.4773 247.363C45.6364 247.891 45.8651 248.293 46.1634 248.569C46.4645 248.844 46.8267 248.982 47.25 248.982Z" fill="#72777B"/>
<rect x="59.5" y="51.5" width="1345" height="195" stroke="#E7EAEE"/>
<rect x="59" y="218" width="36.5278" height="29" rx="1.5" fill="#0FCA7A"/>
<rect x="96.5273" y="200" width="36.5278" height="47" rx="1.5" fill="#0FCA7A"/>
<rect x="134.056" y="189" width="36.5278" height="58" rx="1.5" fill="#0FCA7A"/>
<rect x="171.583" y="173" width="36.5278" height="74" rx="1.5" fill="#0FCA7A"/>
<rect x="209.111" y="155" width="36.5278" height="92" rx="1.5" fill="#0FCA7A"/>
<rect x="246.639" y="136" width="36.5278" height="111" rx="1.5" fill="#0FCA7A"/>
<rect x="284.167" y="118" width="36.5278" height="129" rx="1.5" fill="#0FCA7A"/>
<rect x="321.694" y="103" width="36.5278" height="144" rx="1.5" fill="#0FCA7A"/>
<rect x="359.223" y="76" width="36.5278" height="171" rx="1.5" fill="#0FCA7A"/>
<rect x="396.75" y="67" width="36.5278" height="180" rx="1.5" fill="#0FCA7A"/>
<rect x="434.277" y="91" width="36.5278" height="156" rx="1.5" fill="#0FCA7A"/>
<rect x="471.806" y="110" width="36.5278" height="137" rx="1.5" fill="#0FCA7A"/>
<rect x="509.333" y="121" width="36.5278" height="126" rx="1.5" fill="#0FCA7A"/>
<rect x="546.861" y="139" width="36.5278" height="108" rx="1.5" fill="#0FCA7A"/>
<rect x="584.389" y="155" width="36.5278" height="92" rx="1.5" fill="#0FCA7A"/>
<rect x="621.917" y="166" width="36.5278" height="81" rx="1.5" fill="#0FCA7A"/>
<rect x="659.444" y="178" width="36.5278" height="69" rx="1.5" fill="#0FCA7A"/>
<rect x="696.973" y="189" width="36.5278" height="58" rx="1.5" fill="#0FCA7A"/>
<rect x="734.5" y="196" width="36.5278" height="51" rx="1.5" fill="#0FCA7A"/>
<rect x="772.027" y="201" width="36.5278" height="46" rx="1.5" fill="#0FCA7A"/>
<rect x="809.556" y="216" width="36.5278" height="31" rx="1.5" fill="#0FCA7A"/>
<rect x="847.083" y="222" width="36.5278" height="25" rx="1.5" fill="#0FCA7A"/>
<rect x="884.611" y="214" width="36.5278" height="33" rx="1.5" fill="#0FCA7A"/>
<rect x="922.139" y="201" width="36.5278" height="46" rx="1.5" fill="#0FCA7A"/>
<rect x="959.667" y="189" width="36.5278" height="58" rx="1.5" fill="#0FCA7A"/>
<rect x="997.194" y="173" width="36.5278" height="74" rx="1.5" fill="#0FCA7A"/>
<rect x="1034.72" y="166" width="36.5278" height="81" rx="1.5" fill="#0FCA7A"/>
<rect x="1072.25" y="155" width="36.5278" height="92" rx="1.5" fill="#0FCA7A"/>
<rect x="1109.78" y="151" width="36.5278" height="96" rx="1.5" fill="#0FCA7A"/>
<rect x="1147.31" y="143" width="36.5278" height="104" rx="1.5" fill="#0FCA7A"/>
<rect x="1184.83" y="130" width="36.5278" height="117" rx="1.5" fill="#0FCA7A"/>
<rect x="1222.36" y="116" width="36.5278" height="131" rx="1.5" fill="#0FCA7A"/>
<rect x="1259.89" y="108" width="36.5278" height="139" rx="1.5" fill="#0FCA7A"/>
<rect x="1297.42" y="121" width="36.5278" height="126" rx="1.5" fill="#0FCA7A"/>
<rect x="1334.94" y="151" width="36.5278" height="96" rx="1.5" fill="#0FCA7A"/>
<rect x="1372.47" y="178" width="36.5278" height="69" rx="1.5" fill="#0FCA7A"/>
<path d="M62.75 262.119C62.108 262.119 61.5611 261.945 61.1094 261.595C60.6577 261.243 60.3125 260.733 60.0739 260.065C59.8352 259.395 59.7159 258.585 59.7159 257.636C59.7159 256.693 59.8352 255.888 60.0739 255.22C60.3153 254.55 60.6619 254.038 61.1136 253.686C61.5682 253.331 62.1136 253.153 62.75 253.153C63.3864 253.153 63.9304 253.331 64.3821 253.686C64.8366 254.038 65.1832 254.55 65.4219 255.22C65.6634 255.888 65.7841 256.693 65.7841 257.636C65.7841 258.585 65.6648 259.395 65.4261 260.065C65.1875 260.733 64.8423 261.243 64.3906 261.595C63.9389 261.945 63.392 262.119 62.75 262.119ZM62.75 261.182C63.3864 261.182 63.8807 260.875 64.233 260.261C64.5852 259.648 64.7614 258.773 64.7614 257.636C64.7614 256.881 64.6804 256.237 64.5185 255.706C64.3594 255.175 64.1293 254.77 63.8281 254.491C63.5298 254.213 63.1705 254.074 62.75 254.074C62.1193 254.074 61.6264 254.385 61.2713 255.007C60.9162 255.626 60.7386 256.503 60.7386 257.636C60.7386 258.392 60.8182 259.034 60.9773 259.562C61.1364 260.091 61.3651 260.493 61.6634 260.768C61.9645 261.044 62.3267 261.182 62.75 261.182Z" fill="#72777B"/>
<line x1="283.5" y1="247" x2="283.5" y2="51" stroke="#E7EAEE"/>
<path d="M287.972 253.273V262H286.915V254.381H286.864L284.733 255.795V254.722L286.915 253.273H287.972ZM293.328 262.119C292.686 262.119 292.139 261.945 291.688 261.595C291.236 261.243 290.891 260.733 290.652 260.065C290.413 259.395 290.294 258.585 290.294 257.636C290.294 256.693 290.413 255.888 290.652 255.22C290.893 254.55 291.24 254.038 291.692 253.686C292.146 253.331 292.692 253.153 293.328 253.153C293.964 253.153 294.509 253.331 294.96 253.686C295.415 254.038 295.761 254.55 296 255.22C296.241 255.888 296.362 256.693 296.362 257.636C296.362 258.585 296.243 259.395 296.004 260.065C295.766 260.733 295.42 261.243 294.969 261.595C294.517 261.945 293.97 262.119 293.328 262.119ZM293.328 261.182C293.964 261.182 294.459 260.875 294.811 260.261C295.163 259.648 295.339 258.773 295.339 257.636C295.339 256.881 295.259 256.237 295.097 255.706C294.938 255.175 294.707 254.77 294.406 254.491C294.108 254.213 293.749 254.074 293.328 254.074C292.697 254.074 292.205 254.385 291.849 255.007C291.494 255.626 291.317 256.503 291.317 257.636C291.317 258.392 291.396 259.034 291.555 259.562C291.714 260.091 291.943 260.493 292.241 260.768C292.543 261.044 292.905 261.182 293.328 261.182ZM300.828 262.119C300.186 262.119 299.639 261.945 299.188 261.595C298.736 261.243 298.391 260.733 298.152 260.065C297.913 259.395 297.794 258.585 297.794 257.636C297.794 256.693 297.913 255.888 298.152 255.22C298.393 254.55 298.74 254.038 299.192 253.686C299.646 253.331 300.192 253.153 300.828 253.153C301.464 253.153 302.009 253.331 302.46 253.686C302.915 254.038 303.261 254.55 303.5 255.22C303.741 255.888 303.862 256.693 303.862 257.636C303.862 258.585 303.743 259.395 303.504 260.065C303.266 260.733 302.92 261.243 302.469 261.595C302.017 261.945 301.47 262.119 300.828 262.119ZM300.828 261.182C301.464 261.182 301.959 260.875 302.311 260.261C302.663 259.648 302.839 258.773 302.839 257.636C302.839 256.881 302.759 256.237 302.597 255.706C302.438 255.175 302.207 254.77 301.906 254.491C301.608 254.213 301.249 254.074 300.828 254.074C300.197 254.074 299.705 254.385 299.349 255.007C298.994 255.626 298.817 256.503 298.817 257.636C298.817 258.392 298.896 259.034 299.055 259.562C299.214 260.091 299.443 260.493 299.741 260.768C300.043 261.044 300.405 261.182 300.828 261.182Z" fill="#72777B"/>
<line x1="508.5" y1="247" x2="508.5" y2="51" stroke="#E7EAEE"/>
<path d="M512.801 262.119C512.443 262.114 512.085 262.045 511.727 261.915C511.369 261.784 511.043 261.564 510.747 261.254C510.452 260.942 510.214 260.52 510.036 259.989C509.857 259.455 509.767 258.784 509.767 257.977C509.767 257.205 509.839 256.52 509.984 255.923C510.129 255.324 510.339 254.82 510.615 254.411C510.891 253.999 511.223 253.686 511.612 253.473C512.004 253.26 512.446 253.153 512.938 253.153C513.426 253.153 513.861 253.251 514.241 253.447C514.625 253.641 514.938 253.911 515.179 254.257C515.42 254.604 515.577 255.003 515.648 255.455H514.608C514.511 255.062 514.324 254.737 514.045 254.479C513.767 254.22 513.398 254.091 512.938 254.091C512.261 254.091 511.729 254.385 511.339 254.973C510.953 255.561 510.759 256.386 510.756 257.449H510.824C510.983 257.207 511.172 257.001 511.391 256.831C511.612 256.658 511.857 256.524 512.124 256.43C512.391 256.337 512.673 256.29 512.972 256.29C513.472 256.29 513.929 256.415 514.344 256.665C514.759 256.912 515.091 257.254 515.341 257.692C515.591 258.126 515.716 258.625 515.716 259.188C515.716 259.727 515.595 260.222 515.354 260.67C515.112 261.116 514.773 261.472 514.335 261.736C513.901 261.997 513.389 262.125 512.801 262.119ZM512.801 261.182C513.159 261.182 513.48 261.092 513.764 260.913C514.051 260.734 514.277 260.494 514.442 260.193C514.609 259.892 514.693 259.557 514.693 259.188C514.693 258.827 514.612 258.499 514.45 258.203C514.291 257.905 514.071 257.668 513.79 257.491C513.511 257.315 513.193 257.227 512.835 257.227C512.565 257.227 512.314 257.281 512.081 257.389C511.848 257.494 511.643 257.639 511.467 257.824C511.294 258.009 511.158 258.22 511.058 258.459C510.959 258.695 510.909 258.943 510.909 259.205C510.909 259.551 510.99 259.875 511.152 260.176C511.317 260.477 511.541 260.72 511.825 260.905C512.112 261.089 512.438 261.182 512.801 261.182ZM520.238 262.119C519.596 262.119 519.049 261.945 518.598 261.595C518.146 261.243 517.801 260.733 517.562 260.065C517.324 259.395 517.204 258.585 517.204 257.636C517.204 256.693 517.324 255.888 517.562 255.22C517.804 254.55 518.15 254.038 518.602 253.686C519.056 253.331 519.602 253.153 520.238 253.153C520.875 253.153 521.419 253.331 521.87 253.686C522.325 254.038 522.672 254.55 522.91 255.22C523.152 255.888 523.272 256.693 523.272 257.636C523.272 258.585 523.153 259.395 522.914 260.065C522.676 260.733 522.331 261.243 521.879 261.595C521.427 261.945 520.88 262.119 520.238 262.119ZM520.238 261.182C520.875 261.182 521.369 260.875 521.721 260.261C522.074 259.648 522.25 258.773 522.25 257.636C522.25 256.881 522.169 256.237 522.007 255.706C521.848 255.175 521.618 254.77 521.316 254.491C521.018 254.213 520.659 254.074 520.238 254.074C519.608 254.074 519.115 254.385 518.76 255.007C518.404 255.626 518.227 256.503 518.227 257.636C518.227 258.392 518.306 259.034 518.466 259.562C518.625 260.091 518.853 260.493 519.152 260.768C519.453 261.044 519.815 261.182 520.238 261.182ZM527.738 262.119C527.096 262.119 526.549 261.945 526.098 261.595C525.646 261.243 525.301 260.733 525.062 260.065C524.824 259.395 524.704 258.585 524.704 257.636C524.704 256.693 524.824 255.888 525.062 255.22C525.304 254.55 525.65 254.038 526.102 253.686C526.556 253.331 527.102 253.153 527.738 253.153C528.375 253.153 528.919 253.331 529.37 253.686C529.825 254.038 530.172 254.55 530.41 255.22C530.652 255.888 530.772 256.693 530.772 257.636C530.772 258.585 530.653 259.395 530.414 260.065C530.176 260.733 529.831 261.243 529.379 261.595C528.927 261.945 528.38 262.119 527.738 262.119ZM527.738 261.182C528.375 261.182 528.869 260.875 529.221 260.261C529.574 259.648 529.75 258.773 529.75 257.636C529.75 256.881 529.669 256.237 529.507 255.706C529.348 255.175 529.118 254.77 528.816 254.491C528.518 254.213 528.159 254.074 527.738 254.074C527.108 254.074 526.615 254.385 526.26 255.007C525.904 255.626 525.727 256.503 525.727 257.636C525.727 258.392 525.806 259.034 525.966 259.562C526.125 260.091 526.353 260.493 526.652 260.768C526.953 261.044 527.315 261.182 527.738 261.182Z" fill="#72777B"/>
<line x1="733.5" y1="247" x2="733.5" y2="51" stroke="#E7EAEE"/>
<path d="M735.176 262L739.08 254.278V254.21H734.58V253.273H740.17V254.261L736.284 262H735.176ZM744.418 262.119C743.776 262.119 743.229 261.945 742.777 261.595C742.326 261.243 741.98 260.733 741.742 260.065C741.503 259.395 741.384 258.585 741.384 257.636C741.384 256.693 741.503 255.888 741.742 255.22C741.983 254.55 742.33 254.038 742.782 253.686C743.236 253.331 743.782 253.153 744.418 253.153C745.054 253.153 745.598 253.331 746.05 253.686C746.505 254.038 746.851 254.55 747.09 255.22C747.331 255.888 747.452 256.693 747.452 257.636C747.452 258.585 747.333 259.395 747.094 260.065C746.855 260.733 746.51 261.243 746.059 261.595C745.607 261.945 745.06 262.119 744.418 262.119ZM744.418 261.182C745.054 261.182 745.549 260.875 745.901 260.261C746.253 259.648 746.429 258.773 746.429 257.636C746.429 256.881 746.348 256.237 746.186 255.706C746.027 255.175 745.797 254.77 745.496 254.491C745.198 254.213 744.838 254.074 744.418 254.074C743.787 254.074 743.294 254.385 742.939 255.007C742.584 255.626 742.407 256.503 742.407 257.636C742.407 258.392 742.486 259.034 742.645 259.562C742.804 260.091 743.033 260.493 743.331 260.768C743.632 261.044 743.995 261.182 744.418 261.182ZM751.918 262.119C751.276 262.119 750.729 261.945 750.277 261.595C749.826 261.243 749.48 260.733 749.242 260.065C749.003 259.395 748.884 258.585 748.884 257.636C748.884 256.693 749.003 255.888 749.242 255.22C749.483 254.55 749.83 254.038 750.282 253.686C750.736 253.331 751.282 253.153 751.918 253.153C752.554 253.153 753.098 253.331 753.55 253.686C754.005 254.038 754.351 254.55 754.59 255.22C754.831 255.888 754.952 256.693 754.952 257.636C754.952 258.585 754.833 259.395 754.594 260.065C754.355 260.733 754.01 261.243 753.559 261.595C753.107 261.945 752.56 262.119 751.918 262.119ZM751.918 261.182C752.554 261.182 753.049 260.875 753.401 260.261C753.753 259.648 753.929 258.773 753.929 257.636C753.929 256.881 753.848 256.237 753.686 255.706C753.527 255.175 753.297 254.77 752.996 254.491C752.698 254.213 752.338 254.074 751.918 254.074C751.287 254.074 750.794 254.385 750.439 255.007C750.084 255.626 749.907 256.503 749.907 257.636C749.907 258.392 749.986 259.034 750.145 259.562C750.304 260.091 750.533 260.493 750.831 260.768C751.132 261.044 751.495 261.182 751.918 261.182Z" fill="#72777B"/>
<line x1="958.5" y1="247" x2="958.5" y2="51" stroke="#E7EAEE"/>
<path d="M962.699 262.119C962.114 262.119 961.597 262.016 961.148 261.808C960.702 261.598 960.354 261.31 960.104 260.943C959.854 260.574 959.73 260.153 959.733 259.682C959.73 259.312 959.803 258.972 959.95 258.659C960.098 258.344 960.3 258.081 960.555 257.871C960.814 257.658 961.102 257.523 961.42 257.466V257.415C961.003 257.307 960.67 257.072 960.423 256.712C960.176 256.348 960.054 255.935 960.057 255.472C960.054 255.028 960.166 254.632 960.393 254.283C960.621 253.933 960.933 253.658 961.331 253.456C961.732 253.254 962.188 253.153 962.699 253.153C963.205 253.153 963.656 253.254 964.054 253.456C964.452 253.658 964.764 253.933 964.991 254.283C965.222 254.632 965.338 255.028 965.341 255.472C965.338 255.935 965.212 256.348 964.962 256.712C964.714 257.072 964.386 257.307 963.977 257.415V257.466C964.293 257.523 964.577 257.658 964.83 257.871C965.082 258.081 965.284 258.344 965.435 258.659C965.585 258.972 965.662 259.312 965.665 259.682C965.662 260.153 965.534 260.574 965.281 260.943C965.031 261.31 964.683 261.598 964.237 261.808C963.794 262.016 963.281 262.119 962.699 262.119ZM962.699 261.182C963.094 261.182 963.435 261.118 963.722 260.99C964.009 260.862 964.23 260.682 964.386 260.449C964.543 260.216 964.622 259.943 964.625 259.631C964.622 259.301 964.537 259.01 964.369 258.757C964.202 258.504 963.973 258.305 963.683 258.161C963.396 258.016 963.068 257.943 962.699 257.943C962.327 257.943 961.994 258.016 961.702 258.161C961.412 258.305 961.183 258.504 961.016 258.757C960.851 259.01 960.77 259.301 960.773 259.631C960.77 259.943 960.845 260.216 960.999 260.449C961.155 260.682 961.378 260.862 961.668 260.99C961.957 261.118 962.301 261.182 962.699 261.182ZM962.699 257.04C963.011 257.04 963.288 256.977 963.53 256.852C963.774 256.727 963.966 256.553 964.105 256.328C964.244 256.104 964.315 255.841 964.318 255.54C964.315 255.244 964.246 254.987 964.109 254.768C963.973 254.547 963.784 254.376 963.543 254.257C963.301 254.135 963.02 254.074 962.699 254.074C962.372 254.074 962.087 254.135 961.842 254.257C961.598 254.376 961.409 254.547 961.276 254.768C961.142 254.987 961.077 255.244 961.08 255.54C961.077 255.841 961.143 256.104 961.28 256.328C961.419 256.553 961.611 256.727 961.855 256.852C962.099 256.977 962.381 257.04 962.699 257.04ZM970.145 262.119C969.502 262.119 968.956 261.945 968.504 261.595C968.052 261.243 967.707 260.733 967.468 260.065C967.23 259.395 967.11 258.585 967.11 257.636C967.11 256.693 967.23 255.888 967.468 255.22C967.71 254.55 968.056 254.038 968.508 253.686C968.963 253.331 969.508 253.153 970.145 253.153C970.781 253.153 971.325 253.331 971.777 253.686C972.231 254.038 972.578 254.55 972.816 255.22C973.058 255.888 973.179 256.693 973.179 257.636C973.179 258.585 973.059 259.395 972.821 260.065C972.582 260.733 972.237 261.243 971.785 261.595C971.333 261.945 970.787 262.119 970.145 262.119ZM970.145 261.182C970.781 261.182 971.275 260.875 971.627 260.261C971.98 259.648 972.156 258.773 972.156 257.636C972.156 256.881 972.075 256.237 971.913 255.706C971.754 255.175 971.524 254.77 971.223 254.491C970.924 254.213 970.565 254.074 970.145 254.074C969.514 254.074 969.021 254.385 968.666 255.007C968.311 255.626 968.133 256.503 968.133 257.636C968.133 258.392 968.213 259.034 968.372 259.562C968.531 260.091 968.76 260.493 969.058 260.768C969.359 261.044 969.721 261.182 970.145 261.182ZM977.645 262.119C977.002 262.119 976.456 261.945 976.004 261.595C975.552 261.243 975.207 260.733 974.968 260.065C974.73 259.395 974.61 258.585 974.61 257.636C974.61 256.693 974.73 255.888 974.968 255.22C975.21 254.55 975.556 254.038 976.008 253.686C976.463 253.331 977.008 253.153 977.645 253.153C978.281 253.153 978.825 253.331 979.277 253.686C979.731 254.038 980.078 254.55 980.316 255.22C980.558 255.888 980.679 256.693 980.679 257.636C980.679 258.585 980.559 259.395 980.321 260.065C980.082 260.733 979.737 261.243 979.285 261.595C978.833 261.945 978.287 262.119 977.645 262.119ZM977.645 261.182C978.281 261.182 978.775 260.875 979.127 260.261C979.48 259.648 979.656 258.773 979.656 257.636C979.656 256.881 979.575 256.237 979.413 255.706C979.254 255.175 979.024 254.77 978.723 254.491C978.424 254.213 978.065 254.074 977.645 254.074C977.014 254.074 976.521 254.385 976.166 255.007C975.811 255.626 975.633 256.503 975.633 257.636C975.633 258.392 975.713 259.034 975.872 259.562C976.031 260.091 976.26 260.493 976.558 260.768C976.859 261.044 977.221 261.182 977.645 261.182Z" fill="#72777B"/>
<line x1="1183.5" y1="247" x2="1183.5" y2="51" stroke="#E7EAEE"/>
<path d="M1187.68 253.153C1188.04 253.156 1188.4 253.224 1188.76 253.358C1189.11 253.491 1189.44 253.713 1189.74 254.023C1190.03 254.33 1190.27 254.749 1190.45 255.28C1190.63 255.811 1190.72 256.477 1190.72 257.278C1190.72 258.054 1190.64 258.743 1190.49 259.345C1190.35 259.945 1190.14 260.45 1189.86 260.862C1189.59 261.274 1189.26 261.587 1188.87 261.8C1188.48 262.013 1188.04 262.119 1187.55 262.119C1187.06 262.119 1186.62 262.023 1186.24 261.83C1185.86 261.634 1185.54 261.362 1185.3 261.016C1185.06 260.666 1184.9 260.261 1184.84 259.801H1185.88C1185.97 260.202 1186.15 260.533 1186.43 260.794C1186.71 261.053 1187.09 261.182 1187.55 261.182C1188.22 261.182 1188.75 260.888 1189.14 260.3C1189.53 259.712 1189.73 258.881 1189.73 257.807H1189.66C1189.5 258.045 1189.31 258.251 1189.09 258.425C1188.87 258.598 1188.63 258.732 1188.36 258.825C1188.1 258.919 1187.81 258.966 1187.51 258.966C1187.01 258.966 1186.55 258.842 1186.13 258.595C1185.72 258.345 1185.39 258.003 1185.14 257.568C1184.89 257.131 1184.77 256.631 1184.77 256.068C1184.77 255.534 1184.89 255.045 1185.12 254.602C1185.37 254.156 1185.7 253.801 1186.14 253.537C1186.58 253.273 1187.09 253.145 1187.68 253.153ZM1187.68 254.091C1187.32 254.091 1187 254.18 1186.71 254.359C1186.43 254.536 1186.2 254.774 1186.04 255.075C1185.87 255.374 1185.79 255.705 1185.79 256.068C1185.79 256.432 1185.87 256.763 1186.03 257.061C1186.19 257.357 1186.41 257.592 1186.69 257.768C1186.97 257.942 1187.29 258.028 1187.65 258.028C1187.92 258.028 1188.17 257.976 1188.4 257.871C1188.63 257.763 1188.84 257.616 1189.01 257.432C1189.19 257.244 1189.33 257.033 1189.42 256.797C1189.52 256.558 1189.57 256.31 1189.57 256.051C1189.57 255.71 1189.49 255.391 1189.33 255.092C1189.16 254.794 1188.94 254.553 1188.65 254.368C1188.37 254.183 1188.05 254.091 1187.68 254.091ZM1195.24 262.119C1194.6 262.119 1194.05 261.945 1193.6 261.595C1193.15 261.243 1192.8 260.733 1192.56 260.065C1192.32 259.395 1192.2 258.585 1192.2 257.636C1192.2 256.693 1192.32 255.888 1192.56 255.22C1192.8 254.55 1193.15 254.038 1193.6 253.686C1194.06 253.331 1194.6 253.153 1195.24 253.153C1195.87 253.153 1196.42 253.331 1196.87 253.686C1197.32 254.038 1197.67 254.55 1197.91 255.22C1198.15 255.888 1198.27 256.693 1198.27 257.636C1198.27 258.585 1198.15 259.395 1197.91 260.065C1197.68 260.733 1197.33 261.243 1196.88 261.595C1196.43 261.945 1195.88 262.119 1195.24 262.119ZM1195.24 261.182C1195.87 261.182 1196.37 260.875 1196.72 260.261C1197.07 259.648 1197.25 258.773 1197.25 257.636C1197.25 256.881 1197.17 256.237 1197.01 255.706C1196.85 255.175 1196.62 254.77 1196.32 254.491C1196.02 254.213 1195.66 254.074 1195.24 254.074C1194.61 254.074 1194.11 254.385 1193.76 255.007C1193.4 255.626 1193.23 256.503 1193.23 257.636C1193.23 258.392 1193.31 259.034 1193.47 259.562C1193.62 260.091 1193.85 260.493 1194.15 260.768C1194.45 261.044 1194.81 261.182 1195.24 261.182ZM1202.74 262.119C1202.1 262.119 1201.55 261.945 1201.1 261.595C1200.65 261.243 1200.3 260.733 1200.06 260.065C1199.82 259.395 1199.7 258.585 1199.7 257.636C1199.7 256.693 1199.82 255.888 1200.06 255.22C1200.3 254.55 1200.65 254.038 1201.1 253.686C1201.56 253.331 1202.1 253.153 1202.74 253.153C1203.37 253.153 1203.92 253.331 1204.37 253.686C1204.82 254.038 1205.17 254.55 1205.41 255.22C1205.65 255.888 1205.77 256.693 1205.77 257.636C1205.77 258.585 1205.65 259.395 1205.41 260.065C1205.18 260.733 1204.83 261.243 1204.38 261.595C1203.93 261.945 1203.38 262.119 1202.74 262.119ZM1202.74 261.182C1203.37 261.182 1203.87 260.875 1204.22 260.261C1204.57 259.648 1204.75 258.773 1204.75 257.636C1204.75 256.881 1204.67 256.237 1204.51 255.706C1204.35 255.175 1204.12 254.77 1203.82 254.491C1203.52 254.213 1203.16 254.074 1202.74 254.074C1202.11 254.074 1201.61 254.385 1201.26 255.007C1200.9 255.626 1200.73 256.503 1200.73 257.636C1200.73 258.392 1200.81 259.034 1200.97 259.562C1201.12 260.091 1201.35 260.493 1201.65 260.768C1201.95 261.044 1202.31 261.182 1202.74 261.182Z" fill="#72777B"/>
<path d="M15.022 157.534L16 157.534L16 162.412L7.402 162.412L7.402 161.254L15.022 161.254L15.022 157.534ZM13.264 152.706C13.28 153.198 13.32 153.618 13.384 153.966C13.444 154.31 13.524 154.592 13.624 154.812C13.724 155.028 13.842 155.186 13.978 155.286C14.114 155.382 14.266 155.43 14.434 155.43C14.594 155.43 14.732 155.404 14.848 155.352C14.964 155.3 15.06 155.23 15.136 155.142C15.208 155.05 15.262 154.944 15.298 154.824C15.33 154.7 15.346 154.568 15.346 154.428C15.346 154.24 15.328 154.068 15.292 153.912C15.252 153.756 15.196 153.61 15.124 153.474C15.052 153.334 14.966 153.202 14.866 153.078C14.766 152.95 14.652 152.826 14.524 152.706L13.264 152.706ZM10.78 156.156C10.456 155.82 10.214 155.458 10.054 155.07C9.894 154.682 9.814 154.252 9.814 153.78C9.814 153.44 9.87 153.138 9.982 152.874C10.094 152.61 10.25 152.388 10.45 152.208C10.65 152.028 10.892 151.892 11.176 151.8C11.46 151.708 11.772 151.662 12.112 151.662L16 151.662L16 152.136C16 152.24 15.984 152.32 15.952 152.376C15.916 152.432 15.848 152.476 15.748 152.508L15.172 152.628C15.32 152.788 15.452 152.944 15.568 153.096C15.68 153.248 15.776 153.408 15.856 153.576C15.932 153.744 15.99 153.924 16.03 154.116C16.074 154.304 16.096 154.514 16.096 154.746C16.096 154.982 16.064 155.204 16 155.412C15.932 155.62 15.832 155.802 15.7 155.958C15.568 156.11 15.402 156.232 15.202 156.324C14.998 156.412 14.758 156.456 14.482 156.456C14.242 156.456 14.012 156.39 13.792 156.258C13.568 156.126 13.37 155.912 13.198 155.616C13.026 155.32 12.886 154.934 12.778 154.458C12.666 153.982 12.602 153.398 12.586 152.706L12.112 152.706C11.64 152.706 11.284 152.808 11.044 153.012C10.8 153.216 10.678 153.514 10.678 153.906C10.678 154.17 10.712 154.392 10.78 154.572C10.844 154.748 10.918 154.902 11.002 155.034C11.082 155.162 11.156 155.274 11.224 155.37C11.288 155.462 11.32 155.554 11.32 155.646C11.32 155.718 11.302 155.78 11.266 155.832C11.226 155.884 11.178 155.928 11.122 155.964L10.78 156.156ZM14.536 148.461C14.8 148.265 14.986 148.051 15.094 147.819C15.202 147.583 15.256 147.325 15.256 147.045C15.256 146.473 15.054 146.035 14.65 145.731C14.246 145.427 13.644 145.275 12.844 145.275C12.1 145.275 11.554 145.411 11.206 145.683C10.854 145.951 10.678 146.335 10.678 146.835C10.678 147.183 10.758 147.487 10.918 147.747C11.078 148.003 11.304 148.241 11.596 148.461L14.536 148.461ZM10.798 148.461C10.502 148.205 10.266 147.917 10.09 147.597C9.914 147.273 9.826 146.901 9.826 146.481C9.826 146.125 9.894 145.805 10.03 145.521C10.166 145.233 10.364 144.989 10.624 144.789C10.88 144.589 11.192 144.437 11.56 144.333C11.928 144.225 12.342 144.171 12.802 144.171C13.294 144.171 13.742 144.231 14.146 144.351C14.55 144.471 14.896 144.645 15.184 144.873C15.468 145.097 15.69 145.371 15.85 145.695C16.006 146.019 16.084 146.383 16.084 146.787C16.084 147.187 16.01 147.525 15.862 147.801C15.71 148.073 15.496 148.311 15.22 148.515L15.772 148.569C15.924 148.601 16 148.693 16 148.845L16 149.535L7.162 149.535L7.162 148.461L10.798 148.461ZM12.298 138.252C12.05 138.252 11.824 138.288 11.62 138.36C11.412 138.428 11.234 138.53 11.086 138.666C10.934 138.798 10.818 138.96 10.738 139.152C10.654 139.344 10.612 139.562 10.612 139.806C10.612 140.318 10.762 140.724 11.062 141.024C11.358 141.32 11.77 141.504 12.298 141.576L12.298 138.252ZM15.148 137.388C15.308 137.52 15.448 137.678 15.568 137.862C15.684 138.046 15.78 138.244 15.856 138.456C15.932 138.664 15.988 138.88 16.024 139.104C16.064 139.328 16.084 139.55 16.084 139.77C16.084 140.19 16.014 140.578 15.874 140.934C15.73 141.286 15.522 141.592 15.25 141.852C14.974 142.108 14.634 142.308 14.23 142.452C13.826 142.596 13.362 142.668 12.838 142.668C12.414 142.668 12.018 142.604 11.65 142.476C11.282 142.344 10.964 142.156 10.696 141.912C10.424 141.668 10.212 141.37 10.06 141.018C9.904 140.666 9.826 140.27 9.826 139.83C9.826 139.466 9.888 139.13 10.012 138.822C10.132 138.51 10.308 138.242 10.54 138.018C10.768 137.79 11.052 137.612 11.392 137.484C11.728 137.356 12.112 137.292 12.544 137.292C12.712 137.292 12.824 137.31 12.88 137.346C12.936 137.382 12.964 137.45 12.964 137.55L12.964 141.612C13.348 141.6 13.682 141.548 13.966 141.456C14.25 141.36 14.488 141.228 14.68 141.06C14.868 140.892 15.01 140.692 15.106 140.46C15.198 140.228 15.244 139.968 15.244 139.68C15.244 139.412 15.214 139.182 15.154 138.99C15.09 138.794 15.022 138.626 14.95 138.486C14.878 138.346 14.812 138.23 14.752 138.138C14.688 138.042 14.656 137.96 14.656 137.892C14.656 137.804 14.69 137.736 14.758 137.688L15.148 137.388ZM7.162 134.376L16 134.376L16 135.444L7.162 135.444L7.162 134.376Z" fill="#2D2D2D"/>
</svg>
