<svg width="26" height="30" viewBox="0 0 26 30" fill="none" xmlns="http://www.w3.org/2000/svg">
<path d="M6.44969 8.71501L18.5713 3.81938C18.5887 4.77852 18.9695 5.69446 19.6354 6.37876L7.4284 11.31V11.25C7.4284 10.2731 7.05697 9.38251 6.44969 8.71501ZM6.44969 23.715L18.5713 18.8194C18.5887 19.7785 18.9695 20.6945 19.6354 21.3788L7.4284 26.31V26.25C7.4284 25.2731 7.05697 24.3825 6.44969 23.715ZM18.5713 18.8081L6.36426 13.8769C7.00683 13.2169 7.40983 12.315 7.4284 11.3194L19.55 16.2131C18.9053 16.9196 18.5548 17.8496 18.5713 18.81V18.8081Z" fill="#C1C9D1"/>
<path d="M22.2858 7.5C24.3372 7.5 26.0001 5.82107 26.0001 3.75C26.0001 1.67893 24.3372 0 22.2858 0C20.2345 0 18.5715 1.67893 18.5715 3.75C18.5715 5.82107 20.2345 7.5 22.2858 7.5Z" fill="#ABB4BE"/>
<path d="M3.71429 15C5.76563 15 7.42857 13.3211 7.42857 11.25C7.42857 9.17893 5.76563 7.5 3.71429 7.5C1.66294 7.5 0 9.17893 0 11.25C0 13.3211 1.66294 15 3.71429 15Z" fill="#ABB4BE"/>
<path d="M22.2858 22.5C24.3372 22.5 26.0001 20.8211 26.0001 18.75C26.0001 16.6789 24.3372 15 22.2858 15C20.2345 15 18.5715 16.6789 18.5715 18.75C18.5715 20.8211 20.2345 22.5 22.2858 22.5Z" fill="#ABB4BE"/>
<path d="M3.71429 30C5.76563 30 7.42857 28.3211 7.42857 26.25C7.42857 24.1789 5.76563 22.5 3.71429 22.5C1.66294 22.5 0 24.1789 0 26.25C0 28.3211 1.66294 30 3.71429 30Z" fill="#ABB4BE"/>
</svg>
