<svg width="16" height="12" viewBox="0 0 16 12" fill="none" xmlns="http://www.w3.org/2000/svg">
<path fill-rule="evenodd" clip-rule="evenodd" d="M8 7.45286L9.10933 5.15829L8.304 4.79657L8 5.42486V0H15.1111C15.3469 0 15.573 0.090306 15.7397 0.251051C15.9064 0.411797 16 0.629814 16 0.857143V11.1429C16 11.3702 15.9064 11.5882 15.7397 11.7489C15.573 11.9097 15.3469 12 15.1111 12H8V7.45286ZM14.6667 1.71429C14.7845 1.71429 14.8976 1.66913 14.9809 1.58876C15.0643 1.50839 15.1111 1.39938 15.1111 1.28571C15.1111 1.17205 15.0643 1.06304 14.9809 0.982669C14.8976 0.902296 14.7845 0.857143 14.6667 0.857143C14.5488 0.857143 14.4357 0.902296 14.3524 0.982669C14.269 1.06304 14.2222 1.17205 14.2222 1.28571C14.2222 1.39938 14.269 1.50839 14.3524 1.58876C14.4357 1.66913 14.5488 1.71429 14.6667 1.71429ZM12.8889 1.71429C13.0068 1.71429 13.1198 1.66913 13.2032 1.58876C13.2865 1.50839 13.3333 1.39938 13.3333 1.28571C13.3333 1.17205 13.2865 1.06304 13.2032 0.982669C13.1198 0.902296 13.0068 0.857143 12.8889 0.857143C12.771 0.857143 12.658 0.902296 12.5746 0.982669C12.4913 1.06304 12.4444 1.17205 12.4444 1.28571C12.4444 1.39938 12.4913 1.50839 12.5746 1.58876C12.658 1.66913 12.771 1.71429 12.8889 1.71429ZM11.1111 1.71429C11.229 1.71429 11.342 1.66913 11.4254 1.58876C11.5087 1.50839 11.5556 1.39938 11.5556 1.28571C11.5556 1.17205 11.5087 1.06304 11.4254 0.982669C11.342 0.902296 11.229 0.857143 11.1111 0.857143C10.9932 0.857143 10.8802 0.902296 10.7968 0.982669C10.7135 1.06304 10.6667 1.17205 10.6667 1.28571C10.6667 1.39938 10.7135 1.50839 10.7968 1.58876C10.8802 1.66913 10.9932 1.71429 11.1111 1.71429ZM9.77778 4.80857L11.9022 6.85714L9.77778 8.90571L10.32 9.42857L12.9867 6.85714L10.32 4.28571L9.77778 4.80857Z" fill="white" fill-opacity="0.4"/>
<path fill-rule="evenodd" clip-rule="evenodd" d="M8 5.42486L6.42578 8.68029L7.23111 9.04286L8 7.45286V12H0.888889C0.653141 12 0.427048 11.9097 0.260349 11.7489C0.0936505 11.5882 0 11.3702 0 11.1429V0.857143C0 0.629814 0.0936505 0.411797 0.260349 0.251051C0.427048 0.090306 0.653141 0 0.888889 0H8V5.42486ZM5.87556 4.80943L5.33333 4.28571L2.66667 6.85714L5.33333 9.42857L5.87556 8.90571L3.75378 6.85714L5.87733 4.80857L5.87556 4.80943Z" fill="white" fill-opacity="0.4"/>
<path d="M5.87588 4.80859L5.33366 4.28574L2.66699 6.85716L5.33366 9.42859L5.87588 8.90574L3.7541 6.85716L5.87588 4.80859Z" fill="#242E42"/>
<path d="M9.77734 4.80859L10.3196 4.28574L12.9862 6.85716L10.3196 9.42859L9.77734 8.90574L11.9018 6.85716L9.77734 4.80859Z" fill="#242E42"/>
<path d="M11.1115 2.14287C11.6025 2.14287 12.0004 1.75912 12.0004 1.28573C12.0004 0.812345 11.6025 0.428589 11.1115 0.428589C10.6206 0.428589 10.2227 0.812345 10.2227 1.28573C10.2227 1.75912 10.6206 2.14287 11.1115 2.14287Z" fill="#242E42"/>
<path d="M12.8889 2.14287C13.3798 2.14287 13.7778 1.75912 13.7778 1.28573C13.7778 0.812345 13.3798 0.428589 12.8889 0.428589C12.398 0.428589 12 0.812345 12 1.28573C12 1.75912 12.398 2.14287 12.8889 2.14287Z" fill="#242E42"/>
<path d="M14.6662 2.14287C15.1572 2.14287 15.5551 1.75912 15.5551 1.28573C15.5551 0.812345 15.1572 0.428589 14.6662 0.428589C14.1753 0.428589 13.7773 0.812345 13.7773 1.28573C13.7773 1.75912 14.1753 2.14287 14.6662 2.14287Z" fill="#242E42"/>
</svg>
