<svg width="35" height="40" viewBox="0 0 35 40" fill="none" xmlns="http://www.w3.org/2000/svg">
<path d="M8.68141 11.62L24.9989 5.09247C25.0223 6.37132 25.535 7.59257 26.4314 8.50497L9.99891 15.08V15C9.99891 13.6975 9.49891 12.51 8.68141 11.62ZM8.68141 31.62L24.9989 25.0925C25.0223 26.3713 25.535 27.5926 26.4314 28.505L9.99891 35.08V35C9.99891 33.6975 9.49891 32.51 8.68141 31.62ZM24.9989 25.0775L8.56641 18.5025C9.43141 17.6225 9.97391 16.42 9.99891 15.0925L26.3164 21.6175C25.4485 22.5594 24.9767 23.7994 24.9989 25.08V25.0775Z" fill="#D8DEE5"/>
<path d="M30 10C32.7614 10 35 7.76142 35 5C35 2.23858 32.7614 0 30 0C27.2386 0 25 2.23858 25 5C25 7.76142 27.2386 10 30 10Z" fill="#79879C"/>
<path d="M5 20C7.76142 20 10 17.7614 10 15C10 12.2386 7.76142 10 5 10C2.23858 10 0 12.2386 0 15C0 17.7614 2.23858 20 5 20Z" fill="#79879C"/>
<path d="M30 30C32.7614 30 35 27.7614 35 25C35 22.2386 32.7614 20 30 20C27.2386 20 25 22.2386 25 25C25 27.7614 27.2386 30 30 30Z" fill="#79879C"/>
<path d="M5 40C7.76142 40 10 37.7614 10 35C10 32.2386 7.76142 30 5 30C2.23858 30 0 32.2386 0 35C0 37.7614 2.23858 40 5 40Z" fill="#79879C"/>
</svg>
