<svg width="40" height="40" viewBox="0 0 40 40" fill="none" xmlns="http://www.w3.org/2000/svg">
<path fill-rule="evenodd" clip-rule="evenodd" d="M28.2553 25.0857L40.0002 36.8306L36.8286 40L25.0859 28.2551C26.2878 27.3548 27.355 26.2876 28.2553 25.0857Z" fill="#D8DEE5"/>
<path fill-rule="evenodd" clip-rule="evenodd" d="M15.6898 31.3796C13.6294 31.3796 11.5891 30.9738 9.68557 30.1853C7.78199 29.3968 6.05236 28.2411 4.59543 26.7841C3.1385 25.3272 1.9828 23.5976 1.19431 21.694C0.405828 19.7904 0 17.7502 0 15.6898C0 13.6294 0.405828 11.5891 1.19431 9.68557C1.9828 7.78199 3.1385 6.05236 4.59543 4.59543C6.05236 3.1385 7.78199 1.9828 9.68557 1.19431C11.5891 0.405829 13.6294 -3.07025e-08 15.6898 0C19.851 6.20066e-08 23.8417 1.65303 26.7841 4.59543C29.7266 7.53784 31.3796 11.5286 31.3796 15.6898C31.3796 19.851 29.7266 23.8417 26.7841 26.7841C23.8417 29.7266 19.851 31.3796 15.6898 31.3796ZM15.6898 26.8968C18.6621 26.8968 21.5126 25.716 23.6143 23.6143C25.716 21.5126 26.8968 18.6621 26.8968 15.6898C26.8968 12.7175 25.716 9.86697 23.6143 7.76525C21.5126 5.66353 18.6621 4.4828 15.6898 4.4828C12.7175 4.4828 9.86697 5.66353 7.76525 7.76525C5.66353 9.86697 4.4828 12.7175 4.4828 15.6898C4.4828 18.6621 5.66353 21.5126 7.76525 23.6143C9.86697 25.716 12.7175 26.8968 15.6898 26.8968Z" fill="#79879C"/>
</svg>
