<svg width="51" height="50" viewBox="0 0 51 50" fill="none" xmlns="http://www.w3.org/2000/svg">
<g clip-path="url(#clip0_245_6307)">
<path d="M47.1892 23.4375H26.8767C25.9392 23.4375 25.3142 22.8125 25.3142 21.875V5.15625C25.3142 4.375 25.9392 3.75 26.5642 3.59375L46.8767 0C47.3455 0 47.8142 0 48.1267 0.3125C48.5955 0.625 48.7517 1.09375 48.7517 1.5625V21.875C48.7517 22.8125 48.1267 23.4375 47.1892 23.4375Z" fill="#00ADEF"/>
<path d="M20.6267 23.4375H1.87671C0.939209 23.4375 0.314209 22.8125 0.314209 21.875V9.375C0.314209 8.59375 0.939209 7.96875 1.56421 7.8125L20.3142 4.6875C20.783 4.6875 21.2517 4.6875 21.5642 5C22.033 5.3125 22.1892 5.78125 22.1892 6.25V21.875C22.1892 22.8125 21.5642 23.4375 20.6267 23.4375Z" fill="#00ADEF"/>
<path d="M47.1892 50C47.033 50 47.033 50 46.8767 50L26.5642 46.4063C25.783 46.25 25.3142 45.625 25.3142 44.8438V28.125C25.3142 27.1875 25.9392 26.5625 26.8767 26.5625H47.1892C48.1267 26.5625 48.7517 27.1875 48.7517 28.125V48.4375C48.7517 48.9062 48.5955 49.375 48.1267 49.6875C47.9705 49.8437 47.5017 50 47.1892 50Z" fill="#00ADEF"/>
<path d="M20.6267 45.3125C20.4705 45.3125 20.4705 45.3125 20.3142 45.3125L1.56421 42.1875C0.939209 42.0312 0.314209 41.4062 0.314209 40.625V28.125C0.314209 27.1875 0.939209 26.5625 1.87671 26.5625H20.6267C21.5642 26.5625 22.1892 27.1875 22.1892 28.125V43.75C22.1892 44.2188 22.033 44.6875 21.5642 45C21.408 45.1562 20.9392 45.3125 20.6267 45.3125Z" fill="#00ADEF"/>
</g>
<defs>
<clipPath id="clip0_245_6307">
<rect width="50" height="50" fill="white" transform="translate(0.314209)"/>
</clipPath>
</defs>
</svg>
