<svg width="16" height="16" viewBox="0 0 16 16" fill="none" xmlns="http://www.w3.org/2000/svg">
<path fill-rule="evenodd" clip-rule="evenodd" d="M5.65156 2.15378C6.12056 1.96532 6.61064 1.83429 7.11111 1.76356V0H8.88889V1.76356C9.39733 1.83467 9.88711 1.968 10.3484 2.15467L11.2302 0.627556L12.7698 1.51644L11.888 3.04356C12.2853 3.35644 12.6436 3.71467 12.9564 4.112L14.4836 3.23022L15.3724 4.76978L13.8462 5.65156C14.032 6.11378 14.1644 6.60267 14.2364 7.11111H16V8.88889H14.2364C14.1655 9.38942 14.0342 9.87952 13.8453 10.3484L15.3724 11.2302L14.4836 12.7698L12.9564 11.888C12.6436 12.2853 12.2853 12.6436 11.888 12.9564L12.7698 14.4836L11.2302 15.3724L10.3484 13.8462C9.87944 14.0347 9.38936 14.1657 8.88889 14.2364V16H7.11111V14.2364C6.61058 14.1655 6.12048 14.0342 5.65156 13.8453L4.76978 15.3724L3.23022 14.4836L4.112 12.9564C3.71451 12.6442 3.35581 12.2855 3.04356 11.888L1.51644 12.7698L0.627556 11.2302L2.15378 10.3484C1.96521 9.87948 1.83418 9.38939 1.76356 8.88889H0V7.11111H1.76356C1.83467 6.60267 1.968 6.11289 2.15467 5.65156L0.627556 4.76978L1.51644 3.23022L3.04356 4.112C3.35644 3.71467 3.71467 3.35644 4.112 3.04356L3.23022 1.51644L4.76978 0.627556L5.65156 2.15378ZM8 12.4444C9.17874 12.4444 10.3092 11.9762 11.1427 11.1427C11.9762 10.3092 12.4444 9.17874 12.4444 8C12.4444 6.82126 11.9762 5.6908 11.1427 4.8573C10.3092 4.02381 9.17874 3.55556 8 3.55556C6.82126 3.55556 5.6908 4.02381 4.8573 4.8573C4.02381 5.6908 3.55556 6.82126 3.55556 8C3.55556 9.17874 4.02381 10.3092 4.8573 11.1427C5.6908 11.9762 6.82126 12.4444 8 12.4444Z" fill="#404E68"/>
<path d="M8.00004 10.6667C9.4728 10.6667 10.6667 9.47277 10.6667 8.00001C10.6667 6.52725 9.4728 5.33334 8.00004 5.33334C6.52728 5.33334 5.33337 6.52725 5.33337 8.00001C5.33337 9.47277 6.52728 10.6667 8.00004 10.6667Z" fill="#ABB4BE"/>
</svg>
