<svg width="32" height="36" viewBox="0 0 32 36" fill="none" xmlns="http://www.w3.org/2000/svg">
<path d="M15.4997 9.14759C15.4997 9.26297 15.3843 9.26297 15.3843 9.26297H15.269C15.1536 9.26297 15.1536 9.14759 15.0382 9.0322C15.0382 9.0322 14.9228 8.91682 14.9228 8.80143C14.9228 8.68605 14.9228 8.68605 15.0382 8.68605L15.269 8.80143C15.3843 8.91682 15.4997 9.0322 15.4997 9.14759ZM13.4228 7.99374C13.4228 7.41682 13.192 7.07066 12.8459 7.07066C12.8459 7.07066 12.8459 7.18605 12.7305 7.18605V7.41682H13.0766C13.0766 7.64759 13.192 7.76297 13.192 7.99374H13.4228ZM17.4613 7.41682C17.692 7.41682 17.8074 7.64759 17.9228 7.99374H18.1536C18.0382 7.87836 18.0382 7.76297 18.0382 7.64759C18.0382 7.5322 18.0382 7.41682 17.9228 7.30143C17.8074 7.18605 17.692 7.07066 17.5766 7.07066C17.5766 7.07066 17.4613 7.18605 17.3459 7.18605C17.3459 7.30143 17.4613 7.30143 17.4613 7.41682ZM13.9997 9.26297C13.8843 9.26297 13.8843 9.26297 13.8843 9.14759C13.8843 9.0322 13.8843 8.91682 13.9997 8.80143C14.2305 8.80143 14.3459 8.68605 14.3459 8.68605C14.4613 8.68605 14.4613 8.80143 14.4613 8.80143C14.4613 8.91682 14.3459 9.0322 14.1151 9.26297H13.9997ZM12.7305 9.14759C12.269 8.91682 12.1536 8.57066 12.1536 7.99374C12.1536 7.64759 12.1536 7.41682 12.3843 7.18605C12.4997 6.95528 12.7305 6.83989 12.9613 6.83989C13.192 6.83989 13.3074 6.95528 13.5382 7.18605C13.6536 7.5322 13.769 7.87836 13.769 8.22451V8.45528H13.8843V8.33989C13.9997 8.33989 13.9997 8.10913 13.9997 7.64759C13.9997 7.30143 13.9997 6.95528 13.769 6.60913C13.5382 6.26297 13.3074 6.0322 12.8459 6.0322C12.4997 6.0322 12.1536 6.26297 12.0382 6.60913C11.8074 7.07066 11.7613 7.41682 11.7613 7.99374C11.7613 8.45528 11.9228 8.91682 12.3843 9.37836C12.4997 9.26297 12.6151 9.26297 12.7305 9.14759ZM27.1536 25.4168C27.269 25.4168 27.269 25.3707 27.269 25.2668C27.269 25.013 27.1536 24.713 26.8074 24.3784C26.4613 24.0322 25.8843 23.813 25.192 23.7207C25.0766 23.7091 24.9613 23.7091 24.9613 23.7091C24.8459 23.6861 24.8459 23.6861 24.7305 23.6861C24.6151 23.6745 24.3843 23.6514 24.269 23.6284C24.6151 22.5553 24.7305 21.6091 24.7305 20.7784C24.7305 19.6245 24.4997 18.8168 24.0382 18.1245C23.5766 17.4322 23.1151 17.0861 22.5382 16.9707C22.4228 17.0861 22.4228 17.0861 22.4228 17.2014C22.9997 17.4322 23.5766 17.8937 23.9228 18.5861C24.269 19.3937 24.3843 20.0861 24.3843 20.8937C24.3843 21.5399 24.269 22.4976 23.8074 23.7207C23.3459 23.9053 22.8843 24.3322 22.5382 25.0014C22.5382 25.1053 22.5382 25.163 22.6536 25.163C22.6536 25.163 22.769 25.0591 22.8843 24.863C23.1151 24.6668 23.2305 24.4707 23.4613 24.2745C23.8074 24.0784 24.0382 23.9745 24.3843 23.9745C24.9613 23.9745 25.5382 24.0553 25.8843 24.2168C26.3459 24.3668 26.5766 24.5284 26.692 24.713C26.8074 24.8861 26.9228 25.0476 27.0382 25.1976C27.0382 25.3476 27.1536 25.4168 27.1536 25.4168ZM16.5382 8.68605C16.4228 8.57066 16.4228 8.33989 16.4228 8.10913C16.4228 7.64759 16.4228 7.41682 16.6536 7.07066C16.8843 6.83989 17.1151 6.72451 17.3459 6.72451C17.692 6.72451 17.9228 6.95528 18.1536 7.18605C18.269 7.5322 18.3843 7.76297 18.3843 8.10913C18.3843 8.68605 18.1536 9.0322 17.692 9.14759C17.692 9.14759 17.8074 9.26297 17.9228 9.26297C18.1536 9.26297 18.269 9.37836 18.4997 9.49374C18.6151 8.80143 18.7305 8.33989 18.7305 7.76297C18.7305 7.07066 18.6151 6.60913 18.3843 6.26297C18.0382 5.91682 17.692 5.80143 17.2305 5.80143C16.8843 5.80143 16.5382 5.91682 16.192 6.14759C15.9613 6.49374 15.8459 6.72451 15.8459 7.07066C15.8459 7.64759 15.9613 8.10913 16.192 8.57066C16.3074 8.57066 16.4228 8.68605 16.5382 8.68605ZM17.9228 10.5322C16.4228 11.5707 15.269 12.0322 14.3459 12.0322C13.5382 12.0322 12.7305 11.686 12.0382 11.1091C12.1536 11.3399 12.269 11.5707 12.3843 11.686L13.0766 12.3784C13.5382 12.8399 14.1151 13.0707 14.692 13.0707C15.4997 13.0707 16.4228 12.6091 17.5766 11.8014L18.6151 11.1091C18.8459 10.8784 19.0766 10.6476 19.0766 10.3014C19.0766 10.186 19.0766 10.0707 18.9613 10.0707C18.8459 9.83989 18.269 9.49374 17.1151 9.14759C16.0766 8.68605 15.269 8.45528 14.8074 8.45528C14.4613 8.45528 13.8843 8.68605 13.0766 9.14759C12.3843 9.60913 11.9228 10.0707 11.9228 10.5322C11.9228 10.5322 12.0382 10.6476 12.1536 10.8784C12.8459 11.4553 13.5382 11.8014 14.2305 11.8014C15.1536 11.8014 16.3074 11.3399 17.8074 10.186V10.4168C17.9228 10.4168 17.9228 10.5322 17.9228 10.5322ZM20.5766 33.8399C21.0382 34.7076 21.8459 35.1437 22.769 35.1437C22.9997 35.1437 23.2305 35.1091 23.4613 35.0399C23.692 34.9937 23.9228 34.913 24.0382 34.8207C24.1536 34.7399 24.269 34.6591 24.3843 34.5668C24.6151 34.486 24.6151 34.4284 24.7305 34.3707L26.692 32.6745C27.1536 32.3064 27.6151 31.9845 28.192 31.7053C28.6536 31.4284 29.1151 31.2437 29.3459 31.1399C29.692 31.0476 29.9228 30.9091 30.1536 30.7245C30.269 30.5514 30.3843 30.3322 30.3843 30.0553C30.3843 29.7207 30.1536 29.4668 29.9228 29.2822C29.692 29.0976 29.4613 28.9707 29.2305 28.8899C28.9997 28.8091 28.769 28.6245 28.4228 28.313C28.192 28.013 27.9613 27.5976 27.8459 27.0553L27.7305 26.3861C27.6151 26.0745 27.6151 25.8437 27.4997 25.7168C27.4997 25.6822 27.4997 25.6707 27.3843 25.6707C27.269 25.6707 27.0382 25.7745 26.9228 25.9707C26.692 26.1668 26.4613 26.3861 26.2305 26.6168C26.1151 26.8476 25.769 27.0553 25.5382 27.2514C25.192 27.4476 24.8459 27.5514 24.6151 27.5514C23.692 27.5514 23.2305 27.2976 22.8843 26.8014C22.6536 26.4322 22.5382 26.0053 22.4228 25.5207C22.192 25.3245 22.0766 25.2207 21.8459 25.2207C21.269 25.2207 21.0382 25.8207 21.0382 27.0322V30.6207C21.0382 30.7245 20.9228 30.9553 20.9228 31.313C20.8074 31.6707 20.8074 32.0768 20.8074 32.5361L20.5766 33.8168V33.8364M3.84588 33.226C4.91896 33.383 6.15357 33.7187 7.54973 34.2311C8.94588 34.7387 9.79973 35.0041 10.1113 35.0041C10.919 35.0041 11.5882 34.6464 12.142 33.9553C12.2574 33.7314 12.2574 33.4684 12.2574 33.166C12.2574 32.0757 11.5997 30.6968 10.2843 29.0237L9.49973 27.9737C9.33819 27.7545 9.14203 27.4199 8.88819 26.9699C8.64588 26.5199 8.42665 26.1737 8.25357 25.9314C8.10357 25.6661 7.86126 25.4007 7.54973 25.1353C7.24973 24.8699 6.90357 24.6968 6.5228 24.6045C6.03819 24.6968 5.70357 24.8584 5.54203 25.0776C5.3805 25.2968 5.28819 25.5391 5.26511 25.793C5.2305 26.0353 5.16127 26.1968 5.04588 26.2776C4.9305 26.3468 4.73434 26.4045 4.46896 26.4622C4.41127 26.4622 4.30742 26.4622 4.15742 26.4737H3.84588C3.23434 26.4737 2.81896 26.543 2.59973 26.6584C2.31127 26.993 2.16126 27.3737 2.16126 27.7776C2.16126 27.9622 2.20742 28.2737 2.29973 28.7122C2.39203 29.1391 2.43819 29.4853 2.43819 29.7276C2.43819 30.2007 2.29973 30.6737 2.01127 31.1468C1.7228 31.643 1.5728 32.0122 1.5728 32.2753C1.68819 32.723 2.44973 33.038 3.84588 33.2226M7.68819 22.7341C7.68819 21.938 7.89588 21.0611 8.3228 20.0226C8.73819 18.9841 9.15357 18.2918 9.55742 17.8303C9.53434 17.7149 9.47665 17.7149 9.38434 17.7149L9.26896 17.5995C8.93434 17.9457 8.5305 18.7534 8.04588 19.9072C7.56126 20.9457 7.30742 21.9034 7.30742 22.6072C7.30742 23.1264 7.43434 23.5764 7.66511 23.9687C7.91896 24.3495 8.5305 24.9034 9.49973 25.6072L10.7228 26.4034C12.0266 27.5341 12.719 28.3187 12.719 28.7803C12.719 29.0226 12.6036 29.2649 12.2574 29.5303C12.0266 29.8072 11.7151 29.9457 11.4497 29.9457C11.4266 29.9457 11.4151 29.9687 11.4151 30.0264C11.4151 30.038 11.5305 30.2687 11.7728 30.7187C12.2574 31.3764 13.2959 31.6995 14.6805 31.6995C17.219 31.6995 19.1805 30.6611 20.6805 28.5841C20.6805 28.0072 20.6805 27.6495 20.5651 27.4995V27.0726C20.5651 26.3226 20.6805 25.7572 20.9113 25.388C21.142 25.0187 21.3728 24.8457 21.719 24.8457C21.9497 24.8457 22.1805 24.9264 22.4113 25.0995C22.5266 24.2111 22.5266 23.438 22.5266 22.7457C22.5266 21.6957 22.5266 20.8303 22.2959 20.0226C22.1805 19.3303 21.9497 18.7534 21.719 18.2918L21.0266 17.2534C20.7959 16.9072 20.6805 16.561 20.4497 16.2149C20.3343 15.7534 20.219 15.4072 20.219 14.8303C19.8728 14.2534 19.642 13.6764 19.2959 13.0995C19.0651 12.5226 18.8343 11.9457 18.6036 11.4841L17.5651 12.2918C16.4113 13.0995 15.4882 13.4457 14.6805 13.4457C13.9882 13.4457 13.4113 13.3303 13.0651 12.8687L12.3728 12.2918C12.3728 12.638 12.2574 13.0995 12.0266 13.561L11.2997 14.9457C10.9766 15.7534 10.8036 16.2149 10.769 16.561C10.7228 16.7918 10.6882 17.0226 10.6651 17.0226L9.79973 18.7534C8.86511 20.4841 8.39203 22.088 8.39203 23.4149C8.39203 23.6803 8.41511 23.9572 8.46126 24.2341C7.94203 23.8764 7.68819 23.3803 7.68819 22.7341ZM15.9497 33.6495C14.4497 33.6495 13.2959 33.8526 12.4882 34.2553V34.2207C11.9113 34.913 11.2651 35.2707 10.3651 35.2707C9.79973 35.2707 8.91126 35.0514 7.71127 34.613C6.49973 34.1976 5.42665 33.8791 4.49203 33.6691C4.39973 33.6426 4.19203 33.6034 3.85742 33.5503C3.53434 33.4984 3.23434 33.4453 2.96896 33.3922C2.72665 33.3403 2.44973 33.2618 2.14973 33.1557C1.86127 33.0645 1.6305 32.9457 1.45742 32.8014C1.29819 32.656 1.21973 32.4922 1.21973 32.3087C1.21973 32.1241 1.25896 31.9268 1.33742 31.7168C1.41127 31.5899 1.49203 31.463 1.5728 31.3476C1.65357 31.2207 1.7228 31.1053 1.76896 30.9899C1.83819 30.8861 1.88434 30.7822 1.9305 30.6668C1.97665 30.563 2.0228 30.4591 2.04588 30.3322C2.06896 30.2168 2.09203 30.1014 2.09203 29.9861C2.09203 29.8707 2.04588 29.5245 1.95357 28.913C1.86127 28.313 1.81511 27.9322 1.81511 27.7707C1.81511 27.263 1.9305 26.8591 2.18434 26.5707C2.43819 26.2822 2.6805 26.1322 2.93434 26.1322H4.26126C4.36511 26.1322 4.52665 26.0745 4.76896 25.9361C4.84973 25.7514 4.91896 25.6014 4.96511 25.463C5.0228 25.3245 5.04588 25.2207 5.06896 25.1745C5.09203 25.1053 5.11511 25.0361 5.13819 24.9784C5.18434 24.8976 5.24203 24.8053 5.3228 24.713C5.2305 24.5976 5.18434 24.4476 5.18434 24.263C5.18434 24.1361 5.18434 24.0207 5.20742 23.9514C5.20742 23.5361 5.40357 22.9476 5.81896 22.1745L6.2228 21.4476C6.55742 20.8245 6.81126 20.363 6.99588 19.9014C7.19203 19.4399 7.39973 18.7476 7.6305 17.8245C7.81511 17.0168 8.25357 16.2091 8.94588 15.4014L9.81126 14.363C10.4113 13.6707 10.8036 13.0937 11.0228 12.6322C11.242 12.1707 11.3574 11.5937 11.3574 11.1322C11.3574 10.9014 11.2997 10.2091 11.1728 9.05528C11.0574 7.90143 10.9997 6.74759 10.9997 5.70913C10.9997 4.90143 11.069 4.32451 11.219 3.74759C11.369 3.17066 11.6343 2.59374 12.0266 2.1322C12.3728 1.67066 12.8343 1.20913 13.5266 0.978356C14.219 0.747587 15.0266 0.632202 15.9497 0.632202C16.2959 0.632202 16.642 0.632202 16.9882 0.747587C17.3343 0.747587 17.7959 0.862971 18.3728 1.09374C18.8343 1.32451 19.2959 1.55528 19.642 1.90143C20.1036 2.24759 20.4497 2.82451 20.7959 3.40143C21.0266 4.09374 21.2574 4.78605 21.3728 5.70913C21.4882 6.28605 21.4882 6.86297 21.6036 7.67066C21.6036 8.36297 21.719 8.82451 21.719 9.17066C21.8343 9.51682 21.8343 9.97836 21.9497 10.5553C22.0651 11.0168 22.1805 11.4784 22.4113 11.8245C22.642 12.286 22.8728 12.7476 23.219 13.2091C23.5651 13.786 24.0266 14.363 24.4882 15.0553C25.5266 16.2091 26.3343 17.4784 26.7959 18.7476C27.3728 19.9014 27.719 21.4014 27.719 23.0053C27.719 23.8014 27.6036 24.5745 27.3728 25.3245C27.6036 25.3245 27.719 25.4168 27.8343 25.5784C27.9497 25.7399 28.0651 26.0861 28.1805 26.6284L28.2959 27.4822C28.4113 27.7361 28.5266 27.9784 28.8728 28.1861C29.1036 28.3937 29.3343 28.5668 29.6805 28.7053C29.9113 28.8207 30.2574 28.9822 30.4882 29.1899C30.719 29.4207 30.8343 29.663 30.8343 29.9168C30.8343 30.3091 30.719 30.5976 30.4882 30.8053C30.2574 31.0361 30.0266 31.1976 29.6805 31.3014C29.4497 31.4168 28.9882 31.6476 28.2959 31.973C27.719 32.3145 27.142 32.7287 26.5651 33.2191L25.4113 34.201C24.9497 34.6511 24.4882 34.9741 24.142 35.1703C23.7959 35.378 23.3343 35.4818 22.8728 35.4818L22.0651 35.3895C21.142 35.1472 20.5651 34.6857 20.219 33.9818C18.3728 33.758 16.8728 33.6472 15.9497 33.6472" fill="#324558"/>
</svg>
