<svg width="4" height="13" viewBox="0 0 4 13" fill="none" xmlns="http://www.w3.org/2000/svg">
<path d="M2.3335 13C3.16192 13 3.8335 12.3284 3.8335 11.5C3.8335 10.6716 3.16192 10 2.3335 10C1.50507 10 0.833496 10.6716 0.833496 11.5C0.833496 12.3284 1.50507 13 2.3335 13Z" fill="black"/>
<path d="M2.3335 8C3.16192 8 3.8335 7.32843 3.8335 6.5C3.8335 5.67157 3.16192 5 2.3335 5C1.50507 5 0.833496 5.67157 0.833496 6.5C0.833496 7.32843 1.50507 8 2.3335 8Z" fill="black"/>
<path d="M2.3335 3C3.16192 3 3.8335 2.32843 3.8335 1.5C3.8335 0.671573 3.16192 0 2.3335 0C1.50507 0 0.833496 0.671573 0.833496 1.5C0.833496 2.32843 1.50507 3 2.3335 3Z" fill="black"/>
</svg>
