<svg width="22" height="22" viewBox="0 0 22 22" fill="none" xmlns="http://www.w3.org/2000/svg">
<path fill-rule="evenodd" clip-rule="evenodd" d="M5.16667 2.83333H21.5V21.5H2.83333C2.37184 21.5 1.92072 21.3631 1.537 21.1068C1.15329 20.8504 0.85422 20.486 0.677615 20.0596C0.501011 19.6332 0.454803 19.1641 0.544835 18.7115C0.634868 18.2588 0.857096 17.8431 1.18342 17.5167C1.50974 17.1904 1.9255 16.9682 2.37812 16.8782C2.83075 16.7881 3.2999 16.8343 3.72626 17.0109C4.15262 17.1875 4.51704 17.4866 4.77343 17.8703C5.02982 18.254 5.16667 18.7052 5.16667 19.1667V2.83333ZM9.48917 10.426V16.8333H17.1775V10.426L13.3333 6.58183L9.48917 10.426Z" fill="#ABB4BE"/>
<path fill-rule="evenodd" clip-rule="evenodd" d="M5.16667 19.1667C5.16667 18.5478 4.92083 17.9543 4.48325 17.5168C4.04566 17.0792 3.45217 16.8333 2.83333 16.8333C2.21449 16.8333 1.621 17.0792 1.18342 17.5168C0.745833 17.9543 0.5 18.5478 0.5 19.1667V2.83333C0.5 2.21449 0.745833 1.621 1.18342 1.18342C1.621 0.745833 2.21449 0.5 2.83333 0.5C3.45217 0.5 4.04566 0.745833 4.48325 1.18342C4.92083 1.621 5.16667 2.21449 5.16667 2.83333V19.1667ZM9.48917 10.426L13.3333 6.58183L17.1775 10.426V16.8333H9.48917V10.426Z" fill="#404E68"/>
</svg>
