<svg width="44" height="50" viewBox="0 0 44 50" fill="none" xmlns="http://www.w3.org/2000/svg">
<path d="M21.3053 12.705C21.3053 12.8653 21.145 12.8653 21.145 12.8653H20.9847C20.8245 12.8653 20.8245 12.705 20.6642 12.5448C20.6642 12.5448 20.504 12.3845 20.504 12.2243C20.504 12.064 20.504 12.064 20.6642 12.064L20.9847 12.2243C21.145 12.3845 21.3053 12.5448 21.3053 12.705ZM18.4206 11.1025C18.4206 10.3012 18.1001 9.82042 17.6194 9.82042C17.6194 9.82042 17.6194 9.98068 17.4591 9.98068V10.3012H17.9399C17.9399 10.6217 18.1001 10.782 18.1001 11.1025H18.4206ZM24.0296 10.3012C24.3501 10.3012 24.5104 10.6217 24.6706 11.1025H24.9912C24.8309 10.9422 24.8309 10.782 24.8309 10.6217C24.8309 10.4614 24.8309 10.3012 24.6706 10.1409C24.5104 9.98068 24.3501 9.82042 24.1899 9.82042C24.1899 9.82042 24.0296 9.98068 23.8694 9.98068C23.8694 10.1409 24.0296 10.1409 24.0296 10.3012ZM19.2219 12.8653C19.0617 12.8653 19.0617 12.8653 19.0617 12.705C19.0617 12.5448 19.0617 12.3845 19.2219 12.2243C19.5424 12.2243 19.7027 12.064 19.7027 12.064C19.8629 12.064 19.8629 12.2243 19.8629 12.2243C19.8629 12.3845 19.7027 12.5448 19.3822 12.8653H19.2219ZM17.4591 12.705C16.8181 12.3845 16.6578 11.9038 16.6578 11.1025C16.6578 10.6217 16.6578 10.3012 16.9783 9.98068C17.1386 9.66016 17.4591 9.49991 17.7796 9.49991C18.1001 9.49991 18.2604 9.66016 18.5809 9.98068C18.7412 10.4614 18.9014 10.9422 18.9014 11.423V11.7435H19.0617V11.5832C19.2219 11.5832 19.2219 11.2627 19.2219 10.6217C19.2219 10.1409 19.2219 9.66016 18.9014 9.17939C18.5809 8.69863 18.2604 8.37811 17.6194 8.37811C17.1386 8.37811 16.6578 8.69863 16.4976 9.17939C16.1771 9.82042 16.1129 10.3012 16.1129 11.1025C16.1129 11.7435 16.3373 12.3845 16.9783 13.0255C17.1386 12.8653 17.2988 12.8653 17.4591 12.705ZM37.4911 35.3012C37.6514 35.3012 37.6514 35.2371 37.6514 35.0929C37.6514 34.7403 37.4911 34.3236 37.0104 33.8589C36.5296 33.3781 35.7283 33.0736 34.7668 32.9454C34.6065 32.9294 34.4463 32.9294 34.4463 32.9294C34.286 32.8973 34.286 32.8973 34.1258 32.8973C33.9655 32.8813 33.645 32.8493 33.4847 32.8172C33.9655 31.3268 34.1258 30.0127 34.1258 28.8589C34.1258 27.2563 33.8053 26.1345 33.1642 25.173C32.5232 24.2114 31.8822 23.7307 31.0809 23.5704C30.9206 23.7307 30.9206 23.7307 30.9206 23.8909C31.7219 24.2114 32.5232 24.8525 33.004 25.814C33.4847 26.9358 33.645 27.8973 33.645 29.0191C33.645 29.9166 33.4847 31.2467 32.8437 32.9454C32.2027 33.2018 31.5617 33.7948 31.0809 34.7243C31.0809 34.8685 31.0809 34.9486 31.2412 34.9486C31.2412 34.9486 31.4014 34.8044 31.5617 34.532C31.8822 34.2595 32.0424 33.9871 32.3629 33.7147C32.8437 33.4422 33.1642 33.298 33.645 33.298C34.4463 33.298 35.2476 33.4102 35.7283 33.6345C36.3694 33.8429 36.6899 34.0672 36.8501 34.3236C37.0104 34.564 37.1706 34.7884 37.3309 34.9967C37.3309 35.205 37.4911 35.3012 37.4911 35.3012ZM22.7476 12.064C22.5873 11.9038 22.5873 11.5832 22.5873 11.2627C22.5873 10.6217 22.5873 10.3012 22.9078 9.82042C23.2283 9.49991 23.5488 9.33965 23.8694 9.33965C24.3501 9.33965 24.6706 9.66016 24.9912 9.98068C25.1514 10.4614 25.3117 10.782 25.3117 11.2627C25.3117 12.064 24.9912 12.5448 24.3501 12.705C24.3501 12.705 24.5104 12.8653 24.6706 12.8653C24.9912 12.8653 25.1514 13.0255 25.4719 13.1858C25.6322 12.2243 25.7924 11.5832 25.7924 10.782C25.7924 9.82042 25.6322 9.17939 25.3117 8.69863C24.8309 8.21786 24.3501 8.0576 23.7091 8.0576C23.2283 8.0576 22.7476 8.21786 22.2668 8.53837C21.9463 9.01914 21.786 9.33965 21.786 9.82042C21.786 10.6217 21.9463 11.2627 22.2668 11.9038C22.427 11.9038 22.5873 12.064 22.7476 12.064ZM24.6706 14.6281C22.5873 16.0704 20.9847 16.7114 19.7027 16.7114C18.5809 16.7114 17.4591 16.2307 16.4976 15.4294C16.6578 15.7499 16.8181 16.0704 16.9783 16.2307L17.9399 17.1922C18.5809 17.8332 19.3822 18.1538 20.1835 18.1538C21.3053 18.1538 22.5873 17.5127 24.1899 16.3909L25.6322 15.4294C25.9527 15.1089 26.2732 14.7884 26.2732 14.3076C26.2732 14.1473 26.2732 13.9871 26.1129 13.9871C25.9527 13.6666 25.1514 13.1858 23.5488 12.705C22.1065 12.064 20.9847 11.7435 20.3437 11.7435C19.8629 11.7435 19.0617 12.064 17.9399 12.705C16.9783 13.3461 16.3373 13.9871 16.3373 14.6281C16.3373 14.6281 16.4976 14.7884 16.6578 15.1089C17.6194 15.9102 18.5809 16.3909 19.5424 16.3909C20.8245 16.3909 22.427 15.7499 24.5104 14.1473V14.4679C24.6706 14.4679 24.6706 14.6281 24.6706 14.6281ZM28.3565 46.9999C28.9976 48.205 30.1194 48.8108 31.4014 48.8108C31.7219 48.8108 32.0424 48.7627 32.3629 48.6666C32.6835 48.6025 33.004 48.4903 33.1642 48.3621C33.3245 48.2499 33.4847 48.1377 33.645 48.0095C33.9655 47.8973 33.9655 47.8172 34.1258 47.7371L36.8501 45.3813C37.4911 44.8701 38.1322 44.423 38.9335 44.0352C39.5745 43.6505 40.2155 43.3941 40.536 43.2499C41.0168 43.1217 41.3373 42.9294 41.6578 42.673C41.8181 42.4326 41.9783 42.1281 41.9783 41.7435C41.9783 41.2788 41.6578 40.9262 41.3373 40.6698C41.0168 40.4134 40.6963 40.2371 40.3758 40.1249C40.0553 40.0127 39.7347 39.7563 39.254 39.3236C38.9335 38.907 38.6129 38.33 38.4527 37.5768L38.2924 36.6473C38.1322 36.2147 38.1322 35.8941 37.9719 35.7179C37.9719 35.6698 37.9719 35.6538 37.8117 35.6538C37.6514 35.6538 37.3309 35.798 37.1706 36.0704C36.8501 36.3429 36.5296 36.6473 36.2091 36.9679C36.0488 37.2884 35.5681 37.5768 35.2476 37.8493C34.7668 38.1217 34.286 38.2659 33.9655 38.2659C32.6835 38.2659 32.0424 37.9134 31.5617 37.2243C31.2412 36.7114 31.0809 36.1185 30.9206 35.4454C30.6001 35.173 30.4399 35.0288 30.1194 35.0288C29.3181 35.0288 28.9976 35.8621 28.9976 37.5448V42.5288C28.9976 42.673 28.8373 42.9935 28.8373 43.4903C28.677 43.9871 28.677 44.5512 28.677 45.189L28.3565 46.9679V46.9951M5.11936 46.1473C6.60974 46.3653 8.32449 46.8316 10.2636 47.5432C12.2027 48.2483 13.3886 48.6169 13.8213 48.6169C14.9431 48.6169 15.8726 48.1201 16.6418 47.1602C16.8021 46.8493 16.8021 46.4839 16.8021 46.064C16.8021 44.5496 15.8886 42.6345 14.0617 40.3108L12.9719 38.8525C12.7476 38.548 12.4751 38.0832 12.1226 37.4582C11.786 36.8332 11.4815 36.3525 11.2412 36.0159C11.0328 35.6473 10.6963 35.2788 10.2636 34.9102C9.84692 34.5416 9.36615 34.3012 8.83731 34.173C8.16423 34.3012 7.69949 34.5256 7.47513 34.83C7.25077 35.1345 7.12256 35.4711 7.09051 35.8236C7.04244 36.1602 6.94628 36.3845 6.78603 36.4967C6.62577 36.5929 6.35333 36.673 5.98474 36.7531C5.90462 36.7531 5.76039 36.7531 5.55205 36.7691H5.11936C4.27 36.7691 3.69308 36.8653 3.38859 37.0256C2.98795 37.4903 2.77962 38.0191 2.77962 38.58C2.77962 38.8364 2.84372 39.2691 2.97192 39.8781C3.10013 40.4711 3.16423 40.9518 3.16423 41.2884C3.16423 41.9454 2.97192 42.6025 2.57128 43.2595C2.17064 43.9486 1.96231 44.4614 1.96231 44.8268C2.12256 45.4486 3.18026 45.8861 5.11936 46.1425M10.4559 31.5752C10.4559 30.4695 10.7444 29.2515 11.3373 27.8092C11.9142 26.3669 12.4912 25.4054 13.0521 24.7643C13.02 24.6041 12.9399 24.6041 12.8117 24.6041L12.6514 24.4438C12.1867 24.9246 11.6258 26.0464 10.9527 27.6489C10.2796 29.0913 9.92705 30.4214 9.92705 31.3989C9.92705 32.1201 10.1033 32.7451 10.4238 33.29C10.7764 33.8188 11.6258 34.5881 12.9719 35.5656L14.6706 36.6714C16.4815 38.2419 17.4431 39.3316 17.4431 39.9727C17.4431 40.3092 17.2828 40.6457 16.8021 41.0143C16.4815 41.3989 16.0488 41.5913 15.6803 41.5913C15.6482 41.5913 15.6322 41.6233 15.6322 41.7034C15.6322 41.7195 15.7924 42.04 16.129 42.665C16.8021 43.5784 18.2444 44.0272 20.1674 44.0272C23.6931 44.0272 26.4174 42.5848 28.5008 39.7002C28.5008 38.8989 28.5008 38.4022 28.3405 38.1938V37.6009C28.3405 36.5592 28.5008 35.7739 28.8213 35.2611C29.1418 34.7483 29.4623 34.5079 29.9431 34.5079C30.2636 34.5079 30.5841 34.6201 30.9046 34.8605C31.0649 33.6265 31.0649 32.5528 31.0649 31.5913C31.0649 30.1329 31.0649 28.931 30.7444 27.8092C30.5841 26.8477 30.2636 26.0464 29.9431 25.4054L28.9815 23.9631C28.661 23.4823 28.5008 23.0015 28.1803 22.5207C28.02 21.8797 27.8597 21.3989 27.8597 20.5977C27.379 19.7964 27.0585 18.9951 26.5777 18.1938C26.2572 17.3925 25.9367 16.5913 25.6162 15.9502L24.1738 17.072C22.5713 18.1938 21.2892 18.6746 20.1674 18.6746C19.2059 18.6746 18.4046 18.5143 17.9238 17.8733L16.9623 17.072C16.9623 17.5528 16.8021 18.1938 16.4815 18.8348L15.4719 20.7579C15.0232 21.8797 14.7828 22.5207 14.7347 23.0015C14.6706 23.322 14.6226 23.6425 14.5905 23.6425L13.3886 26.0464C12.0905 28.4502 11.4335 30.6778 11.4335 32.5207C11.4335 32.8893 11.4655 33.2739 11.5296 33.6586C10.8085 33.1618 10.4559 32.4727 10.4559 31.5752ZM21.9303 46.7355C19.8469 46.7355 18.2444 47.0175 17.1226 47.5768V47.5288C16.3213 48.4903 15.4238 48.9871 14.1738 48.9871C13.3886 48.9871 12.1546 48.6826 10.4879 48.0736C8.80526 47.4967 7.31487 47.0544 6.0168 46.7627C5.88859 46.7259 5.60013 46.6714 5.13539 46.5977C4.68667 46.5255 4.27 46.4518 3.90141 46.3781C3.56487 46.306 3.18026 46.197 2.76359 46.0496C2.36295 45.923 2.04244 45.7579 1.80205 45.5576C1.5809 45.3557 1.47192 45.1281 1.47192 44.8733C1.47192 44.6169 1.52641 44.3429 1.63539 44.0512C1.73795 43.8749 1.85013 43.6986 1.96231 43.5384C2.07449 43.3621 2.17064 43.2018 2.23474 43.0416C2.3309 42.8973 2.395 42.7531 2.4591 42.5929C2.52321 42.4486 2.58731 42.3044 2.61936 42.1281C2.65141 41.9679 2.68346 41.8076 2.68346 41.6473C2.68346 41.4871 2.61936 41.0063 2.49115 40.157C2.36295 39.3236 2.29885 38.7948 2.29885 38.5704C2.29885 37.8653 2.4591 37.3044 2.81167 36.9038C3.16423 36.5031 3.50077 36.2948 3.85333 36.2948H5.69628C5.84051 36.2948 6.06487 36.2147 6.40141 36.0223C6.51359 35.7659 6.60974 35.5576 6.67385 35.3653C6.75397 35.173 6.78603 35.0288 6.81808 34.9647C6.85013 34.8685 6.88218 34.7723 6.91423 34.6922C6.97833 34.58 7.05846 34.4518 7.17064 34.3236C7.04244 34.1634 6.97833 33.955 6.97833 33.6986C6.97833 33.5223 6.97833 33.3621 7.01038 33.2659C7.01038 32.689 7.28282 31.8717 7.85974 30.798L8.42064 29.7884C8.88539 28.923 9.23795 28.282 9.49436 27.6409C9.7668 26.9999 10.0553 26.0384 10.3758 24.7563C10.6322 23.6345 11.2412 22.5127 12.2027 21.3909L13.4046 19.9486C14.2379 18.9871 14.7828 18.1858 15.0873 17.5448C15.3918 16.9038 15.5521 16.1025 15.5521 15.4614C15.5521 15.1409 15.4719 14.1794 15.2956 12.5768C15.1354 10.9743 15.0553 9.3717 15.0553 7.9294C15.0553 6.8076 15.1514 6.00632 15.3597 5.20504C15.5681 4.40375 15.9367 3.60247 16.4815 2.96145C16.9623 2.32042 17.6033 1.67939 18.5649 1.35888C19.5264 1.03837 20.6482 0.878113 21.9303 0.878113C22.411 0.878113 22.8918 0.878113 23.3726 1.03837C23.8533 1.03837 24.4944 1.19863 25.2956 1.51914C25.9367 1.83965 26.5777 2.16016 27.0585 2.64093C27.6995 3.1217 28.1803 3.92298 28.661 4.72427C28.9815 5.68581 29.302 6.64734 29.4623 7.9294C29.6226 8.73068 29.6226 9.53196 29.7828 10.6538C29.7828 11.6153 29.9431 12.2563 29.9431 12.7371C30.1033 13.2179 30.1033 13.8589 30.2636 14.6602C30.4238 15.3012 30.5841 15.9422 30.9046 16.423C31.2251 17.064 31.5456 17.705 32.0264 18.3461C32.5072 19.1473 33.1482 19.9486 33.7892 20.9102C35.2315 22.5127 36.3533 24.2755 36.9944 26.0384C37.7956 27.6409 38.2764 29.7243 38.2764 31.9518C38.2764 33.0576 38.1161 34.1313 37.7956 35.173C38.1161 35.173 38.2764 35.3012 38.4367 35.5256C38.5969 35.7499 38.7572 36.2307 38.9174 36.9839L39.0777 38.1698C39.2379 38.5223 39.3982 38.8589 39.879 39.1473C40.1995 39.4358 40.52 39.6762 41.0008 39.8685C41.3213 40.0288 41.802 40.2531 42.1226 40.5416C42.4431 40.8621 42.6033 41.1986 42.6033 41.5512C42.6033 42.0961 42.4431 42.4967 42.1226 42.7852C41.802 43.1057 41.4815 43.33 41.0008 43.4743C40.6803 43.6345 40.0392 43.955 39.0777 44.407C38.2764 44.8813 37.4751 45.4566 36.6738 46.1377L35.0713 47.5015C34.4303 48.1265 33.7892 48.5752 33.3085 48.8477C32.8277 49.1361 32.1867 49.2804 31.5456 49.2804L30.4238 49.1521C29.1418 48.8156 28.3405 48.1746 27.8597 47.197C25.2956 46.8861 23.2123 46.7323 21.9303 46.7323" fill="#324558"/>
</svg>
