<svg width="24" height="24" viewBox="0 0 24 24" fill="none" xmlns="http://www.w3.org/2000/svg">
<g clip-path="url(#clip0_188_21230)">
<path d="M12 23.9353C18.5917 23.9353 23.9353 18.5917 23.9353 12C23.9353 5.40832 18.5917 0.0646973 12 0.0646973C5.40832 0.0646973 0.0646973 5.40832 0.0646973 12C0.0646973 18.5917 5.40832 23.9353 12 23.9353Z" fill="#DD4814"/>
<path d="M3.88392 13.5934C4.76392 13.5934 5.47731 12.88 5.47731 12C5.47731 11.12 4.76392 10.4066 3.88392 10.4066C3.00391 10.4066 2.29053 11.12 2.29053 12C2.29053 12.88 3.00391 13.5934 3.88392 13.5934Z" fill="white"/>
<path d="M8.15938 17.7596C6.76489 16.8279 5.72751 15.4036 5.29663 13.7353C5.80005 13.3251 6.12159 12.7003 6.12159 12C6.12159 11.2997 5.80005 10.6749 5.29663 10.2647C5.72751 8.59642 6.76489 7.17207 8.15938 6.24042L9.32439 8.1919C8.12768 9.03413 7.34511 10.425 7.34511 12C7.34511 13.575 8.12768 14.9659 9.32439 15.8081L8.15938 17.7596Z" fill="white"/>
<path d="M14.6781 4.17471C14.2381 4.93682 14.4992 5.91132 15.2613 6.35132C16.0234 6.79132 16.9979 6.53021 17.4379 5.7681C17.8779 5.00599 17.6168 4.03149 16.8547 3.59149C16.0926 3.15149 15.1181 3.4126 14.6781 4.17471Z" fill="white"/>
<path d="M8.9321 5.79428C10.4362 5.05245 12.1884 4.86622 13.8486 5.32721C13.9521 5.96829 14.3324 6.55913 14.9389 6.90929C15.5454 7.25946 16.2473 7.29337 16.8542 7.0625C18.0836 8.2698 18.7984 9.88037 18.908 11.5539L16.6354 11.587C16.5044 10.1296 15.6911 8.75637 14.3272 7.96889C12.9632 7.18141 11.3674 7.16368 10.0396 7.77894L8.9321 5.79428Z" fill="white"/>
<path d="M17.4377 18.232C16.9977 17.4698 16.0232 17.2087 15.2611 17.6487C14.499 18.0887 14.2379 19.0632 14.6779 19.8253C15.1179 20.5875 16.0924 20.8486 16.8545 20.4086C17.6166 19.9686 17.8777 18.9941 17.4377 18.232Z" fill="white"/>
<path d="M18.908 12.4461C18.7984 14.1196 18.0836 15.7302 16.8543 16.9375C16.2473 16.7066 15.5455 16.7405 14.939 17.0907C14.3325 17.4409 13.9522 18.0317 13.8487 18.6728C12.1884 19.1338 10.4362 18.9476 8.93215 18.2057L10.0397 16.2211C11.3674 16.8363 12.9633 16.8186 14.3272 16.0311C15.6912 15.2436 16.5045 13.8705 16.6355 12.413L18.908 12.4461Z" fill="white"/>
</g>
<defs>
<clipPath id="clip0_188_21230">
<rect width="24" height="24" fill="white"/>
</clipPath>
</defs>
</svg>
