<svg width="36" height="36" viewBox="0 0 36 36" fill="none" xmlns="http://www.w3.org/2000/svg">
<path d="M33 15.75L32.2884 10.0569C32.0092 7.82403 31.8697 6.70753 31.3441 5.8662C30.8812 5.12493 30.2124 4.53451 29.4195 4.16706C28.5195 3.75 27.3943 3.75 25.1439 3.75H10.856C8.60571 3.75 7.48056 3.75 6.58053 4.16706C5.78757 4.53451 5.11875 5.12493 4.65579 5.8662C4.13031 6.70753 3.99075 7.82401 3.71163 10.0569L3 15.75M8.25 21.75H27.75M8.25 21.75C5.3505 21.75 3 19.3995 3 16.5C3 13.6005 5.3505 11.25 8.25 11.25H27.75C30.6495 11.25 33 13.6005 33 16.5C33 19.3995 30.6495 21.75 27.75 21.75M8.25 21.75C5.3505 21.75 3 24.1005 3 27C3 29.8995 5.3505 32.25 8.25 32.25H27.75C30.6495 32.25 33 29.8995 33 27C33 24.1005 30.6495 21.75 27.75 21.75M9 16.5H9.015M9 27H9.015M18 16.5H27M18 27H27" stroke="#324558" stroke-width="2" stroke-linecap="round" stroke-linejoin="round"/>
</svg>
