<svg width="51" height="50" viewBox="0 0 51 50" fill="none" xmlns="http://www.w3.org/2000/svg">
<path d="M46.1476 21.875L45.1593 13.968C44.7716 10.8667 44.5778 9.316 43.8478 8.14748C43.2049 7.11794 42.276 6.29792 41.1747 5.78756C39.9247 5.20831 38.362 5.20831 35.2364 5.20831H15.3921C12.2667 5.20831 10.704 5.20831 9.45392 5.78756C8.35258 6.29792 7.42367 7.11794 6.78067 8.14748C6.05083 9.316 5.857 10.8667 5.46933 13.968L4.48096 21.875M11.7726 30.2083H38.856M11.7726 30.2083C7.74554 30.2083 4.48096 26.9437 4.48096 22.9166C4.48096 18.8896 7.74554 15.625 11.7726 15.625H38.856C42.883 15.625 46.1476 18.8896 46.1476 22.9166C46.1476 26.9437 42.883 30.2083 38.856 30.2083M11.7726 30.2083C7.74554 30.2083 4.48096 33.4729 4.48096 37.5C4.48096 41.5271 7.74554 44.7916 11.7726 44.7916H38.856C42.883 44.7916 46.1476 41.5271 46.1476 37.5C46.1476 33.4729 42.883 30.2083 38.856 30.2083M12.8143 22.9166H12.8351M12.8143 37.5H12.8351M25.3143 22.9166H37.8143M25.3143 37.5H37.8143" stroke="#324558" stroke-width="2" stroke-linecap="round" stroke-linejoin="round"/>
</svg>
